<?xml version="1.0" encoding="UTF-8" standalone="no"?>
<!DOCTYPE svg PUBLIC "-//W3C//DTD SVG 1.1//EN" "http://www.w3.org/Graphics/SVG/1.1/DTD/svg11.dtd">
<svg width="100%" height="100%" viewBox="0 0 500 500" version="1.1" xmlns="http://www.w3.org/2000/svg" xmlns:xlink="http://www.w3.org/1999/xlink" xml:space="preserve" xmlns:serif="http://www.serif.com/" style="fill-rule:evenodd;clip-rule:evenodd;stroke-linecap:round;stroke-linejoin:round;stroke-miterlimit:1.5;">
    <g id="sellotape" transform="matrix(0.711084,0,0,0.711084,52.5267,70.1433)">
        <path d="M255.19,287.473L300.541,302.134L330.029,290.97L343.149,268.296L343.402,250.382L343.149,232.206L335.012,219.906L304.012,203.732L289.753,203.732L338.345,176.29L358.182,190.706L369.178,202.706L374.178,213.456C374.178,213.456 383.33,240.308 382.504,250.382L378.428,276.706L367.928,298.706L358.182,311.706L343.428,323.706L330.428,331.456L319.178,334.956L307.678,338.644L284.178,338.644L270.928,335.456L260.678,331.706L250,326.456L240.678,320.206L234.678,314.706L227.146,306.97L255.19,287.473Z" style="fill:rgb(237,221,71);"/>
        <path d="M213.928,287.473C213.928,287.473 201.428,272.642 199.928,266.392C198.428,260.142 192.464,248.892 193.071,229.142C193.678,209.392 201.928,195.142 201.928,195.142L216.178,173.392L238.678,156.642L254.928,149.642L275.626,146.07L302.838,149.642L318.428,155.142L329.678,162.12L341.178,170.642L351.178,181.392L358.182,189.892L345.178,205.361L331.678,196.142L294.242,203.732L275.626,203.732L260.345,215.559L250.333,226.52L245.083,240.809C245.083,240.809 250.365,257.134 241.813,257.467C241.032,257.497 245.083,273.392 245.083,273.392L252.609,280.559L257,287.473L227.146,306.97L213.928,287.473Z" style="fill:rgb(237,221,71);"/>
        <g transform="matrix(0.732679,0,0,0.732679,78.6571,69.4424)">
            <path d="M244.684,291.63C244.684,291.63 299.684,298.689 321.684,269.189C321.684,269.189 339.738,251.837 343.086,215.689L343.086,205.361C343.086,205.361 374.684,239.542 353.934,280.542C333.184,321.542 301.184,317.478 301.184,317.478L262.434,310.292L244.684,291.63Z" style="fill:white;"/>
        </g>
        <path d="M150.759,359.796L124.592,332.501C133.065,323.371 142.939,314.767 154.967,306.97L172.3,298.335L182.3,295.001L193.071,291.835L212.3,287.473L232.22,313.501L229.3,315.668L217.467,317.59L208.8,320.335L199.3,323.635L186.8,330.001L178.406,335.501L166.467,343.835L158.467,351.168L150.759,359.796Z" style="fill:rgb(237,221,71);"/>
        <g transform="matrix(1.02829,0,0,1.02829,42.4622,5.17294)">
            <circle cx="244.853" cy="238.463" r="85.833" style="fill:none;stroke:rgb(237,193,71);stroke-width:4.85px;"/>
            <g transform="matrix(0.556979,0,0,0.556979,108.475,108.085)">
                <circle cx="244.853" cy="238.463" r="85.833" style="fill:none;stroke:white;stroke-width:24.96px;"/>
            </g>
            <g transform="matrix(0.732679,0,0,0.732679,65.4542,66.187)">
                <path d="M193.019,277.014C193.019,277.014 291.186,296.906 292.352,194.68" style="fill:none;stroke:white;stroke-width:6.62px;"/>
            </g>
            <path d="M179.004,293.493C179.004,293.493 170.571,281.899 163.097,271.621C150.61,254.451 144.869,233.29 146.965,212.163C147.655,205.197 149.136,197.836 151.804,190.426C151.804,190.426 164.804,160.093 189.137,148.093C189.137,148.093 190.526,147.233 193.104,145.982C213.122,136.118 236.248,134.648 257.354,141.898C261.378,143.22 265.261,144.847 269.024,146.721C283.431,153.9 296.067,164.706 307.033,178.933" style="fill:none;stroke:rgb(237,205,71);stroke-width:4.85px;"/>
            <path d="M165.537,274.533C165.537,274.533 110.87,279.533 79.87,318.199L105.203,344.866C105.203,344.866 136.537,305.787 184.537,301.493" style="fill:none;stroke:rgb(237,205,71);stroke-width:4.85px;"/>
        </g>
    </g>
</svg>
