<?xml version="1.0" encoding="UTF-8" standalone="no"?>
<!DOCTYPE svg PUBLIC "-//W3C//DTD SVG 1.1//EN" "http://www.w3.org/Graphics/SVG/1.1/DTD/svg11.dtd">
<svg width="100%" height="100%" viewBox="0 0 500 500" version="1.1" xmlns="http://www.w3.org/2000/svg" xmlns:xlink="http://www.w3.org/1999/xlink" xml:space="preserve" xmlns:serif="http://www.serif.com/" style="fill-rule:evenodd;clip-rule:evenodd;stroke-linecap:round;stroke-linejoin:round;stroke-miterlimit:1.5;">
    <g transform="matrix(1,0,0,1,-19.1285,0.104794)">
        <g>
            <path d="M65.295,231.604L65.295,250L400.364,302.353C400.364,302.353 433.56,285.353 472.962,245.353L472.962,231.603L65.295,231.604Z" style="fill:rgb(242,242,242);"/>
            <path d="M65.295,231.437C65.295,231.437 149.962,223.77 196.295,197.437C196.295,197.437 283.399,215.27 472.962,231.437C472.962,231.437 427.025,274.604 401.025,284.604L65.295,231.437Z" style="fill:rgb(229,213,177);stroke:rgb(229,213,177);stroke-width:1.02px;"/>
        </g>
        <g>
            <g transform="matrix(1,0,0,1.03116,0,-7.16238)">
                <path d="M76.884,231.603C76.884,231.603 69.884,226.103 66.884,234.817C63.884,243.531 68.027,247.103 68.027,247.103C68.027,247.103 70.741,251.103 78.17,252.817" style="fill:none;stroke:rgb(112,111,135);stroke-width:2.67px;"/>
            </g>
            <path d="M86.17,233.674C86.17,233.674 81.313,226.246 76.741,235.389C72.17,244.531 78.17,250 78.17,250C78.17,250 82.741,254.389 85.17,255.246" style="fill:none;stroke:rgb(112,111,135);stroke-width:2.71px;"/>
            <g transform="matrix(1,0,0,1,8,1)">
                <path d="M86.17,233.674C86.17,233.674 81.313,226.246 76.741,235.389C72.17,244.531 78.17,250 78.17,250C78.17,250 82.741,254.389 85.17,255.246" style="fill:none;stroke:rgb(112,111,135);stroke-width:2.71px;"/>
            </g>
            <g transform="matrix(1,0,0,1,16,2)">
                <path d="M86.17,233.674C86.17,233.674 81.313,226.246 76.741,235.389C72.17,244.531 78.17,250 78.17,250C78.17,250 82.741,254.389 85.17,255.246" style="fill:none;stroke:rgb(112,111,135);stroke-width:2.71px;"/>
            </g>
            <g transform="matrix(1,0,0,1,25,3)">
                <path d="M86.17,233.674C86.17,233.674 81.313,226.246 76.741,235.389C72.17,244.531 78.17,250 78.17,250C78.17,250 82.741,254.389 85.17,255.246" style="fill:none;stroke:rgb(112,111,135);stroke-width:2.71px;"/>
            </g>
            <g transform="matrix(1,0,0,1,35,5)">
                <path d="M86.17,233.674C86.17,233.674 81.313,226.246 76.741,235.389C72.17,244.531 78.17,250 78.17,250C78.17,250 82.741,254.389 85.17,255.246" style="fill:none;stroke:rgb(112,111,135);stroke-width:2.71px;"/>
            </g>
            <g transform="matrix(1,0,0,1,44,6)">
                <path d="M86.17,233.674C86.17,233.674 81.313,226.246 76.741,235.389C72.17,244.531 78.17,250 78.17,250C78.17,250 82.741,254.389 85.17,255.246" style="fill:none;stroke:rgb(112,111,135);stroke-width:2.71px;"/>
            </g>
            <g transform="matrix(1,0,0,1,53,7)">
                <path d="M86.17,233.674C86.17,233.674 81.313,226.246 76.741,235.389C72.17,244.531 78.17,250 78.17,250C78.17,250 82.741,254.389 85.17,255.246" style="fill:none;stroke:rgb(112,111,135);stroke-width:2.71px;"/>
            </g>
            <g transform="matrix(1,0,0,1,62,9)">
                <path d="M86.17,233.674C86.17,233.674 81.313,226.246 76.741,235.389C72.17,244.531 78.17,250 78.17,250C78.17,250 82.741,254.389 85.17,255.246" style="fill:none;stroke:rgb(112,111,135);stroke-width:2.71px;"/>
            </g>
            <path d="M158.317,244.603C158.317,244.603 152.69,234.688 148.17,249.895C146.696,254.853 146.784,258.394 147.571,260.915C148.846,264.934 153.11,267.187 157.149,265.975C157.15,265.978 157.15,265.978 157.15,265.978" style="fill:none;stroke:rgb(112,111,135);stroke-width:2.71px;"/>
            <g transform="matrix(1,0,0,1,9,1)">
                <path d="M158.317,244.603C158.317,244.603 152.69,234.688 148.17,249.895C146.696,254.853 146.784,258.394 147.571,260.915C148.846,264.934 153.11,267.187 157.149,265.975C157.15,265.978 157.15,265.978 157.15,265.978" style="fill:none;stroke:rgb(112,111,135);stroke-width:2.71px;"/>
            </g>
            <g transform="matrix(1,0,0,1,18,2)">
                <path d="M158.317,244.603C158.317,244.603 152.69,234.688 148.17,249.895C146.696,254.853 146.784,258.394 147.571,260.915C148.846,264.934 153.11,267.187 157.149,265.975C157.15,265.978 157.15,265.978 157.15,265.978" style="fill:none;stroke:rgb(112,111,135);stroke-width:2.71px;"/>
            </g>
            <g transform="matrix(1,0,0,1,28,4)">
                <path d="M158.317,244.603C158.317,244.603 152.69,234.688 148.17,249.895C146.696,254.853 146.784,258.394 147.571,260.915C148.846,264.934 153.11,267.187 157.149,265.975C157.15,265.978 157.15,265.978 157.15,265.978" style="fill:none;stroke:rgb(112,111,135);stroke-width:2.71px;"/>
            </g>
            <g transform="matrix(1,0,0,1,38,5)">
                <path d="M158.317,244.603C158.317,244.603 152.69,234.688 148.17,249.895C146.696,254.853 146.784,258.394 147.571,260.915C148.846,264.934 153.11,267.187 157.149,265.975C157.15,265.978 157.15,265.978 157.15,265.978" style="fill:none;stroke:rgb(112,111,135);stroke-width:2.71px;"/>
            </g>
            <g transform="matrix(1,0,0,1,47,7)">
                <path d="M158.317,244.603C158.317,244.603 152.69,234.688 148.17,249.895C146.696,254.853 146.784,258.394 147.571,260.915C148.846,264.934 153.11,267.187 157.149,265.975C157.15,265.978 157.15,265.978 157.15,265.978" style="fill:none;stroke:rgb(112,111,135);stroke-width:2.71px;"/>
            </g>
            <g transform="matrix(1,0,0,1.04038,0,-11.1338)">
                <path d="M215.879,254.353C215.879,254.353 212.151,246.398 208.37,254.86C207.573,256.603 207.124,258.474 207.047,260.376C206.941,263.452 207.202,268.746 209.779,272.757C210.976,274.604 213.117,275.687 215.378,275.589C215.379,275.603 215.379,275.603 215.379,275.603" style="fill:none;stroke:rgb(112,111,135);stroke-width:2.66px;"/>
            </g>
            <g transform="matrix(1,0,0,1.06057,8,-15.2006)">
                <path d="M215.879,254.353C215.879,254.353 212.072,246.23 208.251,255.133C207.545,256.732 207.141,258.435 207.057,260.165C206.929,263.226 207.145,268.728 209.834,272.842C211.019,274.636 213.139,275.687 215.379,275.59C215.379,275.603 215.379,275.603 215.379,275.603" style="fill:none;stroke:rgb(112,111,135);stroke-width:2.63px;"/>
            </g>
            <g transform="matrix(1,0,0,1.06057,18.875,-13.2006)">
                <path d="M215.879,254.353C215.879,254.353 212.072,246.23 208.251,255.133C207.545,256.732 207.141,258.435 207.057,260.165C206.929,263.226 207.145,268.728 209.834,272.842C211.019,274.636 213.139,275.687 215.379,275.59C215.379,275.603 215.379,275.603 215.379,275.603" style="fill:none;stroke:rgb(112,111,135);stroke-width:2.63px;"/>
            </g>
            <g transform="matrix(1,0,0,1.06057,30.875,-11.2006)">
                <path d="M215.879,254.353C215.879,254.353 212.072,246.23 208.251,255.133C207.545,256.732 207.141,258.435 207.057,260.165C206.929,263.226 207.145,268.728 209.834,272.842C211.019,274.636 213.139,275.687 215.379,275.59C215.379,275.603 215.379,275.603 215.379,275.603" style="fill:none;stroke:rgb(112,111,135);stroke-width:2.63px;"/>
            </g>
            <g transform="matrix(1,0,0,1.06057,40.875,-10.2006)">
                <path d="M215.879,254.353C215.879,254.353 212.072,246.23 208.251,255.133C207.545,256.732 207.141,258.435 207.057,260.165C206.929,263.226 207.145,268.728 209.834,272.842C211.019,274.636 213.139,275.687 215.379,275.59C215.379,275.603 215.379,275.603 215.379,275.603" style="fill:none;stroke:rgb(112,111,135);stroke-width:2.63px;"/>
            </g>
            <g transform="matrix(1,0,0,1.06057,51.875,-8.20063)">
                <path d="M215.879,254.353C215.879,254.353 212.072,246.23 208.251,255.133C207.545,256.732 207.141,258.435 207.057,260.165C206.929,263.226 207.145,268.728 209.834,272.842C211.019,274.636 213.139,275.687 215.379,275.59C215.379,275.603 215.379,275.603 215.379,275.603" style="fill:none;stroke:rgb(112,111,135);stroke-width:2.63px;"/>
            </g>
            <g transform="matrix(1,0,0,1.06057,62.875,-6.20063)">
                <path d="M215.879,254.353C215.879,254.353 212.072,246.23 208.251,255.133C207.545,256.732 207.141,258.435 207.057,260.165C206.929,263.226 207.145,268.728 209.834,272.842C211.019,274.636 213.139,275.687 215.379,275.59C215.379,275.603 215.379,275.603 215.379,275.603" style="fill:none;stroke:rgb(112,111,135);stroke-width:2.63px;"/>
            </g>
            <g transform="matrix(1,0,0,1.06057,73.875,-5.20063)">
                <path d="M215.879,254.353C215.879,254.353 212.072,246.23 208.251,255.133C207.545,256.732 207.141,258.435 207.057,260.165C206.929,263.226 207.145,268.728 209.834,272.842C211.019,274.636 213.139,275.687 215.379,275.59C215.379,275.603 215.379,275.603 215.379,275.603" style="fill:none;stroke:rgb(112,111,135);stroke-width:2.63px;"/>
            </g>
            <g transform="matrix(1,0,0,1.06057,84.875,-3.20063)">
                <path d="M215.879,254.353C215.879,254.353 212.072,246.23 208.251,255.133C207.545,256.732 207.141,258.435 207.057,260.165C206.929,263.226 207.145,268.728 209.834,272.842C211.019,274.636 213.139,275.687 215.379,275.59C215.379,275.603 215.379,275.603 215.379,275.603" style="fill:none;stroke:rgb(112,111,135);stroke-width:2.63px;"/>
            </g>
            <path d="M313.321,269.269C313.321,269.269 310.321,258.936 307.654,269.769C305.924,276.8 308.335,283.831 310.241,287.901C311.237,290.009 313.526,291.186 315.821,290.769C315.821,290.769 315.821,290.769 315.821,290.769" style="fill:none;stroke:rgb(112,111,135);stroke-width:2.71px;"/>
            <g transform="matrix(1,0,0,1.02505,10,-5.63351)">
                <path d="M313.321,269.269C313.321,269.269 310.321,258.936 307.654,269.769C305.913,276.845 308.365,283.92 310.277,287.977C311.253,290.035 313.536,291.184 315.821,290.769C315.821,290.769 315.821,290.769 315.821,290.769" style="fill:none;stroke:rgb(112,111,135);stroke-width:2.68px;"/>
            </g>
            <g transform="matrix(1,0,0,1.03757,21,-7.95026)">
                <path d="M313.321,269.269C313.321,269.269 310.321,258.936 307.654,269.769C305.907,276.866 308.38,283.963 310.294,288.014C311.261,290.047 313.54,291.184 315.821,290.769C315.821,290.769 315.821,290.769 315.821,290.769" style="fill:none;stroke:rgb(112,111,135);stroke-width:2.66px;"/>
            </g>
            <g transform="matrix(1,0,0,1.03757,34,-5.95026)">
                <path d="M313.321,269.269C313.321,269.269 310.321,258.936 307.654,269.769C305.907,276.866 308.38,283.963 310.294,288.014C311.261,290.047 313.54,291.184 315.821,290.769C315.821,290.769 315.821,290.769 315.821,290.769" style="fill:none;stroke:rgb(112,111,135);stroke-width:2.66px;"/>
            </g>
            <g transform="matrix(1,0,0,1.03757,45,-3.95026)">
                <path d="M313.321,269.269C313.321,269.269 310.321,258.936 307.654,269.769C305.907,276.866 308.38,283.963 310.294,288.014C311.261,290.047 313.54,291.184 315.821,290.769C315.821,290.769 315.821,290.769 315.821,290.769" style="fill:none;stroke:rgb(112,111,135);stroke-width:2.66px;"/>
            </g>
            <g transform="matrix(1,0,0,1.03757,56,-1.95026)">
                <path d="M313.321,269.269C313.321,269.269 310.321,258.936 307.654,269.769C305.907,276.866 308.38,283.963 310.294,288.014C311.261,290.047 313.54,291.184 315.821,290.769C315.821,290.769 315.821,290.769 315.821,290.769" style="fill:none;stroke:rgb(112,111,135);stroke-width:2.66px;"/>
            </g>
            <g transform="matrix(1,0,0,1.03757,65,-0.950263)">
                <path d="M313.321,269.269C313.321,269.269 310.321,258.936 307.654,269.769C305.907,276.866 308.38,283.963 310.294,288.014C311.261,290.047 313.54,291.184 315.821,290.769C315.821,290.769 315.821,290.769 315.821,290.769" style="fill:none;stroke:rgb(112,111,135);stroke-width:2.66px;"/>
            </g>
        </g>
    </g>
</svg>
