<?xml version="1.0" encoding="UTF-8" standalone="no"?><!DOCTYPE svg PUBLIC "-//W3C//DTD SVG 1.1//EN" "http://www.w3.org/Graphics/SVG/1.1/DTD/svg11.dtd"><svg width="100%" height="100%" viewBox="0 0 500 500" version="1.1" xmlns="http://www.w3.org/2000/svg" xmlns:xlink="http://www.w3.org/1999/xlink" xml:space="preserve" xmlns:serif="http://www.serif.com/" style="fill-rule:evenodd;clip-rule:evenodd;stroke-linejoin:round;stroke-miterlimit:2;"><path d="M269.278,344.834c-1.752,1.398 -4.183,1.579 -6.123,0.456c-15.474,-8.957 -82.225,-47.594 -99.902,-57.826c-2.544,-1.473 -3.787,-4.466 -3.036,-7.308c5.026,-18.998 23.442,-88.617 28.227,-106.704c0.683,-2.584 2.93,-4.451 5.595,-4.649c19.774,-1.473 99.461,-7.405 118.031,-8.788c2.323,-0.173 4.5,1.146 5.423,3.285c6.975,16.171 35.591,82.513 43.74,101.406c1.284,2.976 0.417,6.444 -2.117,8.465c-16.549,13.201 -75.975,60.605 -89.838,71.663Z" style="fill:#e0bb97;"/><path d="M70.719,393.783c-2.869,-0.847 -4.891,-3.411 -5.047,-6.398c-1.702,-32.635 -11.253,-215.736 -13.4,-256.902c-0.255,-4.88 2.716,-9.351 7.313,-11.007c38.352,-13.818 207.361,-74.708 238.129,-85.793c2.875,-1.036 6.091,-0.116 7.984,2.284c20.933,26.539 139.162,176.43 162.024,205.415c2.286,2.898 2.462,6.934 0.436,10.02c-19.145,29.164 -113.68,173.175 -137.418,209.336c-3.216,4.899 -9.259,7.114 -14.878,5.454c-42.404,-12.525 -214.2,-63.269 -245.143,-72.409Z" style="fill:#e0bb97;"/></svg>