<?xml version="1.0" encoding="UTF-8" standalone="no"?>
<!DOCTYPE svg PUBLIC "-//W3C//DTD SVG 1.1//EN" "http://www.w3.org/Graphics/SVG/1.1/DTD/svg11.dtd">
<svg width="100%" height="100%" viewBox="0 0 500 500" version="1.1" xmlns="http://www.w3.org/2000/svg" xmlns:xlink="http://www.w3.org/1999/xlink" xml:space="preserve" xmlns:serif="http://www.serif.com/" style="fill-rule:evenodd;clip-rule:evenodd;stroke-linecap:round;stroke-linejoin:round;stroke-miterlimit:1.5;">
    <g transform="matrix(1,0,0,1,15,70)">
        <path d="M40,300L430,300L430,220C430,220 241.98,194.391 100,60" style="fill:none;stroke:rgb(82,125,144);stroke-width:7.23px;"/>
        <path d="M425.094,295.538L40,295.205" style="fill:none;stroke:white;stroke-width:3.89px;"/>
        <g transform="matrix(1,0,0,1,0,-4)">
            <path d="M425.094,295.538L40,295.205" style="fill:none;stroke:white;stroke-width:3.89px;"/>
        </g>
        <g transform="matrix(1,0,0,1,0,-8)">
            <path d="M425.094,295.538L40,295.205" style="fill:none;stroke:white;stroke-width:3.89px;"/>
        </g>
        <g transform="matrix(1,0,0,1,0,-11)">
            <path d="M425.094,295.538L40,295.205" style="fill:none;stroke:white;stroke-width:3.89px;"/>
        </g>
        <g transform="matrix(1,0,0,1,0,-14)">
            <path d="M425.094,295.538L40,295.205" style="fill:none;stroke:white;stroke-width:3.89px;"/>
        </g>
        <g transform="matrix(1,0,0,1,0,-17)">
            <path d="M425.094,295.538L40,295.205" style="fill:none;stroke:white;stroke-width:3.89px;"/>
        </g>
        <g transform="matrix(1,0,0,1,0,-20)">
            <path d="M425.094,295.538L40,295.205" style="fill:none;stroke:white;stroke-width:3.89px;"/>
        </g>
        <g transform="matrix(1,0,0,1,0,-23)">
            <path d="M425.094,295.538L40,295.205" style="fill:none;stroke:white;stroke-width:3.89px;"/>
        </g>
        <g transform="matrix(1,0,0,1,0,-26)">
            <path d="M425.094,295.538L40,295.205" style="fill:none;stroke:white;stroke-width:3.89px;"/>
        </g>
        <g transform="matrix(1,0,0,1,0,-29)">
            <path d="M425.094,295.538L40,295.205" style="fill:none;stroke:white;stroke-width:3.89px;"/>
        </g>
        <g transform="matrix(1,0,0,1,0,-32)">
            <path d="M425.094,295.538L40,295.205" style="fill:none;stroke:white;stroke-width:3.89px;"/>
        </g>
        <g transform="matrix(1,0,0,1,0,-35)">
            <path d="M425.094,295.538L40,295.205" style="fill:none;stroke:white;stroke-width:3.89px;"/>
        </g>
        <g transform="matrix(1,0,0,1,0,-38)">
            <path d="M425.094,295.538L40,295.205" style="fill:none;stroke:white;stroke-width:3.89px;"/>
        </g>
        <g transform="matrix(1,0,0,1,0,-41)">
            <path d="M425.094,295.538L40,295.205" style="fill:none;stroke:white;stroke-width:3.89px;"/>
        </g>
        <g transform="matrix(1,0,0,1,0,-44)">
            <path d="M425.094,295.538L40,295.205" style="fill:none;stroke:white;stroke-width:3.89px;"/>
        </g>
        <g transform="matrix(1,0,0,1,0,-47)">
            <path d="M425.094,295.538L40,295.205" style="fill:none;stroke:white;stroke-width:3.89px;"/>
        </g>
        <g transform="matrix(1,0,0,1,0,-50)">
            <path d="M425.094,295.538L40,295.205" style="fill:none;stroke:white;stroke-width:3.89px;"/>
        </g>
        <g transform="matrix(1,0,0,1,0,-53)">
            <path d="M425.094,295.538L40,295.205" style="fill:none;stroke:white;stroke-width:3.89px;"/>
        </g>
        <g transform="matrix(1,0,0,1,0,-56)">
            <path d="M425.094,295.538L43,280.538" style="fill:none;stroke:white;stroke-width:3.89px;"/>
        </g>
        <g transform="matrix(1,0,0,1,0,-59)">
            <path d="M425.094,295.538C295.875,291.928 164.218,277.693 43,258.08" style="fill:none;stroke:white;stroke-width:3.89px;"/>
        </g>
        <g transform="matrix(1,0,0,1,0,-62)">
            <path d="M425.094,295.538C298.136,284.425 172.292,266.068 48,237.621" style="fill:none;stroke:white;stroke-width:3.89px;"/>
        </g>
        <g transform="matrix(1,0,0,1,0,-65)">
            <path d="M425.094,295.538C298.985,284.852 175.943,260.057 56.5,218.705" style="fill:none;stroke:white;stroke-width:3.89px;"/>
        </g>
        <g transform="matrix(1,0,0,1,0,-68)">
            <path d="M425.094,295.538C297.218,282.111 177.043,249.132 66.5,191.705" style="fill:none;stroke:white;stroke-width:3.89px;"/>
        </g>
        <g transform="matrix(1,0,0,1,0,-71)">
            <path d="M425.094,295.538C301.91,279.548 186.684,237.028 79.5,167.705" style="fill:none;stroke:white;stroke-width:3.89px;"/>
        </g>
        <g transform="matrix(1,0,0,1,0,-73)">
            <path d="M425.094,295.538C300.634,278.251 189.293,228.824 91.5,146.205" style="fill:none;stroke:white;stroke-width:3.89px;"/>
        </g>
    </g>
</svg>
