<?xml version="1.0" encoding="UTF-8" standalone="no"?>
<!DOCTYPE svg PUBLIC "-//W3C//DTD SVG 1.1//EN" "http://www.w3.org/Graphics/SVG/1.1/DTD/svg11.dtd">
<svg width="100%" height="100%" viewBox="0 0 500 500" version="1.1" xmlns="http://www.w3.org/2000/svg" xmlns:xlink="http://www.w3.org/1999/xlink" xml:space="preserve" xmlns:serif="http://www.serif.com/" style="fill-rule:evenodd;clip-rule:evenodd;stroke-linejoin:round;stroke-miterlimit:2;">
    <g transform="matrix(0.516172,0,0,0.516172,113.305,112.965)">
        <g transform="matrix(0.999999,0.00130736,-0.00130736,0.999999,5.30086,-7.25639)">
            <path d="M87.84,296.498C87.84,296.498 266.413,188.632 301.493,167.442C307.778,163.647 315.396,162.75 322.391,164.982C327.514,166.664 332.552,170.084 334.897,176.902C338.19,186.498 334.509,197.103 325.978,202.594C284.556,229.259 113.893,339.108 113.893,339.108L87.84,296.498Z" style="fill:rgb(160,210,231);"/>
            <path d="M87.84,296.498C87.84,296.498 266.413,188.632 301.493,167.442C307.778,163.647 315.396,162.75 322.391,164.982C327.514,166.664 332.552,170.084 334.897,176.902C338.19,186.498 334.509,197.103 325.978,202.594C284.556,229.259 113.893,339.108 113.893,339.108L87.84,296.498ZM116.297,328.605L321.902,196.263C327.519,192.647 329.943,185.665 327.776,179.35C326.341,175.177 323.179,173.166 320.102,172.156C315.176,170.584 309.811,171.215 305.386,173.888L98.213,299.029L116.297,328.605Z" style="fill:rgb(105,156,178);"/>
        </g>
        <g transform="matrix(1,0,0,1,-58,15)">
            <circle cx="165" cy="295" r="25" style="fill:rgb(160,210,231);"/>
            <path d="M165,270C178.798,270 190,281.202 190,295C190,308.798 178.798,320 165,320C151.202,320 140,308.798 140,295C140,281.202 151.202,270 165,270ZM165,277.53C174.642,277.53 182.47,285.358 182.47,295C182.47,304.642 174.642,312.47 165,312.47C155.358,312.47 147.53,304.642 147.53,295C147.53,285.358 155.358,277.53 165,277.53Z" style="fill:rgb(105,156,178);"/>
        </g>
    </g>
    <g transform="matrix(0.516172,0,0,0.516172,168.275,133.113)">
        <g transform="matrix(0.999999,0.00130736,-0.00130736,0.999999,5.30086,-7.25639)">
            <path d="M87.84,296.498C87.84,296.498 266.413,188.632 301.493,167.442C307.778,163.647 315.396,162.75 322.391,164.982C327.514,166.664 332.552,170.084 334.897,176.902C338.19,186.498 334.509,197.103 325.978,202.594C284.556,229.259 113.893,339.108 113.893,339.108L87.84,296.498Z" style="fill:rgb(160,210,231);"/>
            <path d="M87.84,296.498C87.84,296.498 266.413,188.632 301.493,167.442C307.778,163.647 315.396,162.75 322.391,164.982C327.514,166.664 332.552,170.084 334.897,176.902C338.19,186.498 334.509,197.103 325.978,202.594C284.556,229.259 113.893,339.108 113.893,339.108L87.84,296.498ZM116.297,328.605L321.902,196.263C327.519,192.647 329.943,185.665 327.776,179.35C326.341,175.177 323.179,173.166 320.102,172.156C315.176,170.584 309.811,171.215 305.386,173.888L98.213,299.029L116.297,328.605Z" style="fill:rgb(105,156,178);"/>
        </g>
        <g transform="matrix(1,0,0,1,-58,15)">
            <circle cx="165" cy="295" r="25" style="fill:rgb(160,210,231);"/>
            <path d="M165,270C178.798,270 190,281.202 190,295C190,308.798 178.798,320 165,320C151.202,320 140,308.798 140,295C140,281.202 151.202,270 165,270ZM165,277.53C174.642,277.53 182.47,285.358 182.47,295C182.47,304.642 174.642,312.47 165,312.47C155.358,312.47 147.53,304.642 147.53,295C147.53,285.358 155.358,277.53 165,277.53Z" style="fill:rgb(105,156,178);"/>
        </g>
    </g>
</svg>
