<?xml version="1.0" encoding="UTF-8" standalone="no"?>
<!DOCTYPE svg PUBLIC "-//W3C//DTD SVG 1.1//EN" "http://www.w3.org/Graphics/SVG/1.1/DTD/svg11.dtd">
<svg width="100%" height="100%" viewBox="0 0 500 500" version="1.1" xmlns="http://www.w3.org/2000/svg" xmlns:xlink="http://www.w3.org/1999/xlink" xml:space="preserve" xmlns:serif="http://www.serif.com/" style="fill-rule:evenodd;clip-rule:evenodd;stroke-linecap:round;stroke-linejoin:round;stroke-miterlimit:1.5;">
    <g transform="matrix(0.730484,0,0,0.730484,67.2109,67.2371)">
        <g transform="matrix(1,0,0,1,3.89559,-0.0211888)">
            <path d="M114.46,432.927C114.251,432.308 124.211,430.028 134.92,427.767C151.101,424.321 167.622,422.728 184.163,423.018C185.1,423.028 185.939,423.043 186.645,423.055C188.222,423.083 189.8,423.089 191.377,423.072C197.959,423.002 216.722,422.802 227.713,422.685C233.203,422.627 238.661,423.525 243.843,425.34C243.843,425.34 243.843,425.34 243.844,425.34C258.186,430.362 273.273,432.927 288.469,432.927L294.384,432.927C304.072,432.927 313.697,431.366 322.888,428.303C322.888,428.303 322.888,428.303 322.888,428.303C333.212,424.863 344.089,423.391 354.955,423.962C356.505,424.044 357.511,424.097 357.511,424.097C357.511,424.097 359.793,424.816 363.055,425.844C368.308,427.498 374.035,426.552 378.475,423.295C382.916,420.038 385.54,414.86 385.54,409.353L385.54,409.349C385.54,402.883 384.59,396.452 382.719,390.262C382.101,388.215 381.422,385.969 380.728,383.673C376.614,370.058 374.883,355.835 375.612,341.63C376.136,331.402 376.731,319.805 377.113,312.356C377.378,307.192 378.062,302.058 379.159,297.004C379.575,295.085 380.044,292.923 380.535,290.663C383.862,275.33 385.54,259.684 385.54,243.994L385.54,243.994C385.54,227.473 383.289,211.029 378.85,195.116C377.426,190.01 375.998,184.889 374.817,180.658C372.955,173.982 372.011,167.083 372.011,160.152C372.011,155.468 372.011,150.075 372.011,145.92C372.011,141.386 372.516,136.865 373.518,132.442C373.619,131.998 373.723,131.539 373.829,131.069C377.039,116.896 378.186,102.334 377.235,87.833C377.235,87.833 377.235,87.833 377.235,87.833C376.869,82.255 378.478,76.726 381.778,72.214C382.205,71.631 382.623,71.06 383.016,70.522C383.463,69.911 383.511,69.095 383.137,68.436C382.763,67.778 382.038,67.399 381.284,67.47C368.977,68.616 333.757,71.898 326.49,72.575C325.609,72.657 324.727,72.725 323.844,72.779C318.116,73.127 295.095,74.529 280.36,75.426C271.937,75.938 263.484,75.32 255.226,73.588C249.741,72.437 243.284,71.083 237.682,69.908C228.764,68.037 219.562,67.975 210.62,69.726C198.511,72.096 182.669,75.198 182.669,75.198C182.669,75.198 160.699,78.374 148.73,80.105C143.723,80.829 138.632,80.723 133.66,79.792C131.266,79.344 128.559,78.837 125.949,78.349C122.943,77.786 119.837,78.471 117.347,80.247C114.856,82.022 113.196,84.735 112.749,87.76C112.13,91.936 111.418,96.746 110.743,101.31C109.029,112.889 108.083,124.569 107.911,136.273C107.911,136.273 107.911,136.273 107.911,136.273C107.75,147.207 108.423,158.137 109.924,168.969C110.517,173.251 111.163,177.912 111.777,182.339C113.564,195.23 114.46,208.228 114.46,221.242L114.46,234.298C114.46,244.735 115.596,255.141 117.849,265.331C117.849,265.332 117.849,265.332 117.849,265.332C120.053,275.3 120.919,285.518 120.426,295.715C120.228,299.796 120.03,303.89 119.886,306.865C119.741,309.854 119.463,312.835 119.051,315.8C118.224,321.754 116.738,332.448 115.681,340.059C114.867,345.918 113.83,351.744 112.572,357.525C110.412,367.451 107.169,382.351 107.169,382.351C107.169,382.351 107.169,382.351 107.169,382.351C106.839,396.535 108.538,410.694 112.215,424.397C113.586,429.505 114.627,433.423 114.46,432.927Z" style="fill:rgb(165,197,218);fill-opacity:0.5;stroke:rgb(131,185,220);stroke-width:1px;"/>
        </g>
        <g transform="matrix(1,0,0,1,0,-1)">
            <path d="M232.216,69.304C232.216,69.304 300.466,504.361 269.966,76.916" style="fill:rgb(165,197,218);fill-opacity:0.5;stroke:rgb(131,185,220);stroke-width:1.51px;"/>
        </g>
        <path d="M362.341,423.831C362.341,423.831 323.716,86.1 334.092,426.081" style="fill:rgb(165,197,218);fill-opacity:0.5;stroke:rgb(131,185,220);stroke-width:1.51px;"/>
        <path d="M250,426.081C250,426.081 216.55,-103.062 229.342,422.357" style="fill:rgb(165,197,218);fill-opacity:0.5;stroke:rgb(131,185,220);stroke-width:1.51px;"/>
        <path d="M125.51,77.507C125.51,77.507 185.968,595.417 160.51,78.757" style="fill:rgb(165,197,218);fill-opacity:0.5;stroke:rgb(131,185,220);stroke-width:1.51px;"/>
    </g>
</svg>
