<?xml version="1.0" encoding="UTF-8" standalone="no"?>
<!DOCTYPE svg PUBLIC "-//W3C//DTD SVG 1.1//EN" "http://www.w3.org/Graphics/SVG/1.1/DTD/svg11.dtd">
<svg width="100%" height="100%" viewBox="0 0 500 500" version="1.1" xmlns="http://www.w3.org/2000/svg" xmlns:xlink="http://www.w3.org/1999/xlink" xml:space="preserve" xmlns:serif="http://www.serif.com/" style="fill-rule:evenodd;clip-rule:evenodd;stroke-linejoin:round;stroke-miterlimit:2;">
    <g transform="matrix(0.588049,0,0,0.588049,114.332,113.323)">
        <g transform="matrix(1,0,0,1,0,-2)">
            <path d="M271.345,367.587L264.164,375.187L250,373.587L247.164,375.587L183.964,363.787L184.164,360.787L181.764,358.387L178.137,357.987L173.564,332.285L177.764,329.187L185.364,352.387L246.764,364.16L250,361.187L271.345,367.587Z" style="fill:rgb(72,80,93);"/>
        </g>
        <g transform="matrix(1,0,0,1,0,6)">
            <g transform="matrix(1,0,0,1,0,0.625)">
                <path d="M203.616,101.307L200.366,91.526L134.491,113.151L137.637,122.901L203.616,101.307Z" style="fill:rgb(199,55,82);"/>
            </g>
            <path d="M203.616,101.307L137.637,123.307L154.137,173.641L218.637,152.974L203.616,101.307Z" style="fill:rgb(171,190,196);"/>
            <path d="M200.241,92.151C200.241,92.151 197.241,84.901 189.991,85.276L137.637,103.151C137.637,103.151 132.491,108.276 134.491,114.151L200.241,92.151Z" style="fill:rgb(183,184,184);"/>
        </g>
        <path d="M250,362.16L246.387,364.16C246.387,364.16 208.637,361.66 184.887,352.16L135.887,176.188L186.887,146.733C186.887,146.733 204.887,136.733 224.387,130.483L267.012,294.41L271.345,294.41L250,362.16Z" style="fill:rgb(140,178,197);"/>
        <g transform="matrix(1,0,0,1,0,-0.749998)">
            <g id="Layer1">
                <path d="M250,363.66L250,324.91C250,324.91 252.637,304.41 271.637,295.16L320.637,300.91C320.637,300.91 326.137,304.16 327.387,310.16L326.387,342.66C326.387,342.66 320.887,358.41 300.637,370.91L250,363.66Z" style="fill:rgb(41,74,105);"/>
            </g>
        </g>
    </g>
</svg>
