<?xml version="1.0" encoding="UTF-8" standalone="no"?>
<!DOCTYPE svg PUBLIC "-//W3C//DTD SVG 1.1//EN" "http://www.w3.org/Graphics/SVG/1.1/DTD/svg11.dtd">
<svg width="100%" height="100%" viewBox="0 0 500 500" version="1.1" xmlns="http://www.w3.org/2000/svg" xmlns:xlink="http://www.w3.org/1999/xlink" xml:space="preserve" xmlns:serif="http://www.serif.com/" style="fill-rule:evenodd;clip-rule:evenodd;stroke-linecap:round;stroke-linejoin:round;stroke-miterlimit:1.5;">
    <g transform="matrix(0.957166,0,0,0.957166,13.3843,14.8651)">
        <g transform="matrix(0.710525,0,0,0.710525,-42.3809,-39.3678)">
            <g>
                <g transform="matrix(1,0,0,1,0,-2)">
                    <rect x="403" y="259" width="17" height="101" style="fill:rgb(102,102,102);stroke:rgb(140,131,131);stroke-width:2.7px;"/>
                </g>
                <path d="M406.771,260L406.771,358" style="fill:none;stroke:rgb(140,131,131);stroke-width:2.7px;"/>
                <g transform="matrix(1,0,0,1,8.22863,0)">
                    <path d="M406.771,260L406.771,358" style="fill:none;stroke:rgb(140,131,131);stroke-width:2.7px;"/>
                </g>
            </g>
            <g transform="matrix(0.85,0,0,1,63,0)">
                <path d="M400,259L400,210C406.635,204.563 413.287,204.77 420,210L420,259L400,259Z" style="fill:rgb(72,162,33);stroke:rgb(141,199,116);stroke-width:2.9px;"/>
                <g id="Layer1">
                    <path d="M400,210L405,213L415,213L420,210" style="fill:none;stroke:rgb(141,199,116);stroke-width:2.9px;"/>
                </g>
                <g id="Layer2">
                    <path d="M405,213L404.437,259" style="fill:none;stroke:rgb(141,199,116);stroke-width:2.9px;"/>
                    <g transform="matrix(1,0,0,1,10,0)">
                        <path d="M405,213L404.437,259" style="fill:none;stroke:rgb(141,199,116);stroke-width:2.9px;"/>
                    </g>
                </g>
            </g>
            <rect x="402" y="257" width="19" height="6" style="fill:rgb(217,217,217);"/>
        </g>
        <g transform="matrix(0.710525,0,0,0.710525,-30.6309,-39.3678)">
            <g>
                <g transform="matrix(1,0,0,1,0,-2)">
                    <rect x="403" y="259" width="17" height="101" style="fill:rgb(102,102,102);stroke:rgb(140,131,131);stroke-width:2.7px;"/>
                </g>
                <path d="M406.771,260L406.771,358" style="fill:none;stroke:rgb(140,131,131);stroke-width:2.7px;"/>
                <g transform="matrix(1,0,0,1,8.22863,0)">
                    <path d="M406.771,260L406.771,358" style="fill:none;stroke:rgb(140,131,131);stroke-width:2.7px;"/>
                </g>
            </g>
            <g transform="matrix(0.85,0,0,1,63,0)">
                <path d="M400,259L400,210C406.635,204.563 413.287,204.77 420,210L420,259L400,259Z" style="fill:rgb(72,162,33);stroke:rgb(141,199,116);stroke-width:2.9px;"/>
                <g id="Layer11" serif:id="Layer1">
                    <path d="M400,210L405,213L415,213L420,210" style="fill:none;stroke:rgb(141,199,116);stroke-width:2.9px;"/>
                </g>
                <g id="Layer21" serif:id="Layer2">
                    <path d="M405,213L404.437,259" style="fill:none;stroke:rgb(141,199,116);stroke-width:2.9px;"/>
                    <g transform="matrix(1,0,0,1,10,0)">
                        <path d="M405,213L404.437,259" style="fill:none;stroke:rgb(141,199,116);stroke-width:2.9px;"/>
                    </g>
                </g>
            </g>
            <rect x="402" y="257" width="19" height="6" style="fill:rgb(217,217,217);"/>
        </g>
        <g transform="matrix(0.710525,0,0,0.710525,-39.3809,-31.3678)">
            <g>
                <g transform="matrix(1,0,0,1,0,-2)">
                    <rect x="403" y="259" width="17" height="101" style="fill:rgb(102,102,102);stroke:rgb(140,131,131);stroke-width:2.7px;"/>
                </g>
                <path d="M406.771,260L406.771,358" style="fill:none;stroke:rgb(140,131,131);stroke-width:2.7px;"/>
                <g transform="matrix(1,0,0,1,8.22863,0)">
                    <path d="M406.771,260L406.771,358" style="fill:none;stroke:rgb(140,131,131);stroke-width:2.7px;"/>
                </g>
            </g>
            <g transform="matrix(0.85,0,0,1,63,0)">
                <path d="M400,259L400,210C406.635,204.563 413.287,204.77 420,210L420,259L400,259Z" style="fill:rgb(72,162,33);stroke:rgb(141,199,116);stroke-width:2.9px;"/>
                <g id="Layer12" serif:id="Layer1">
                    <path d="M400,210L405,213L415,213L420,210" style="fill:none;stroke:rgb(141,199,116);stroke-width:2.9px;"/>
                </g>
                <g id="Layer22" serif:id="Layer2">
                    <path d="M405,213L404.437,259" style="fill:none;stroke:rgb(141,199,116);stroke-width:2.9px;"/>
                    <g transform="matrix(1,0,0,1,10,0)">
                        <path d="M405,213L404.437,259" style="fill:none;stroke:rgb(141,199,116);stroke-width:2.9px;"/>
                    </g>
                </g>
            </g>
            <rect x="402" y="257" width="19" height="6" style="fill:rgb(217,217,217);"/>
            <g transform="matrix(0.85,0,0,1,91.1482,-11.2593)">
                <path d="M400,259L400,210C406.635,204.563 413.287,204.77 420,210L420,259L400,259Z" style="fill:rgb(72,162,33);stroke:rgb(141,199,116);stroke-width:2.9px;"/>
                <g id="Layer13" serif:id="Layer1">
                    <path d="M400,210L405,213L415,213L420,210" style="fill:none;stroke:rgb(141,199,116);stroke-width:2.9px;"/>
                </g>
                <g id="Layer23" serif:id="Layer2">
                    <path d="M405,213L404.437,259" style="fill:none;stroke:rgb(141,199,116);stroke-width:2.9px;"/>
                    <g transform="matrix(1,0,0,1,10,0)">
                        <path d="M405,213L404.437,259" style="fill:none;stroke:rgb(141,199,116);stroke-width:2.9px;"/>
                    </g>
                </g>
            </g>
            <g transform="matrix(0.85,0,0,1,91.1482,-11.2593)">
                <path d="M400,259L400,210C406.635,204.563 413.287,204.77 420,210L420,259L400,259Z" style="fill:rgb(72,162,33);stroke:rgb(141,199,116);stroke-width:2.9px;"/>
                <g id="Layer14" serif:id="Layer1">
                    <path d="M400,210L405,213L415,213L420,210" style="fill:none;stroke:rgb(141,199,116);stroke-width:2.9px;"/>
                </g>
                <g id="Layer24" serif:id="Layer2">
                    <path d="M405,213L404.437,259" style="fill:none;stroke:rgb(141,199,116);stroke-width:2.9px;"/>
                    <g transform="matrix(1,0,0,1,10,0)">
                        <path d="M405,213L404.437,259" style="fill:none;stroke:rgb(141,199,116);stroke-width:2.9px;"/>
                    </g>
                </g>
            </g>
        </g>
        <g transform="matrix(0.710525,0,0,0.710525,-28.3809,-32.3678)">
            <g>
                <g transform="matrix(1,0,0,1,0,-2)">
                    <rect x="403" y="259" width="17" height="101" style="fill:rgb(102,102,102);stroke:rgb(140,131,131);stroke-width:2.7px;"/>
                </g>
                <path d="M406.771,260L406.771,358" style="fill:none;stroke:rgb(140,131,131);stroke-width:2.7px;"/>
                <g transform="matrix(1,0,0,1,8.22863,0)">
                    <path d="M406.771,260L406.771,358" style="fill:none;stroke:rgb(140,131,131);stroke-width:2.7px;"/>
                </g>
            </g>
            <g transform="matrix(0.85,0,0,1,65.8148,0)">
                <path d="M400,259L400,210C406.635,204.563 413.287,204.77 420,210L420,259L400,259Z" style="fill:rgb(72,162,33);stroke:rgb(141,199,116);stroke-width:2.9px;"/>
                <g id="Layer15" serif:id="Layer1">
                    <path d="M400,210L405,213L415,213L420,210" style="fill:none;stroke:rgb(141,199,116);stroke-width:2.9px;"/>
                </g>
                <g id="Layer25" serif:id="Layer2">
                    <path d="M405,213L404.437,259" style="fill:none;stroke:rgb(141,199,116);stroke-width:2.9px;"/>
                    <g transform="matrix(1,0,0,1,10,0)">
                        <path d="M405,213L404.437,259" style="fill:none;stroke:rgb(141,199,116);stroke-width:2.9px;"/>
                    </g>
                </g>
            </g>
            <rect x="402" y="257" width="19" height="6" style="fill:rgb(217,217,217);"/>
        </g>
        <g transform="matrix(0.710525,0,0,0.710525,-14.3809,-32.3678)">
            <g>
                <g transform="matrix(1,0,0,1,0,-2)">
                    <rect x="403" y="259" width="17" height="101" style="fill:rgb(102,102,102);stroke:rgb(140,131,131);stroke-width:2.7px;"/>
                </g>
                <path d="M406.771,260L406.771,358" style="fill:none;stroke:rgb(140,131,131);stroke-width:2.7px;"/>
                <g transform="matrix(1,0,0,1,8.22863,0)">
                    <path d="M406.771,260L406.771,358" style="fill:none;stroke:rgb(140,131,131);stroke-width:2.7px;"/>
                </g>
            </g>
            <g transform="matrix(0.85,0,0,1,63,0)">
                <path d="M400,259L400,210C406.635,204.563 413.287,204.77 420,210L420,259L400,259Z" style="fill:rgb(72,162,33);stroke:rgb(141,199,116);stroke-width:2.9px;"/>
                <g id="Layer16" serif:id="Layer1">
                    <path d="M400,210L405,213L415,213L420,210" style="fill:none;stroke:rgb(141,199,116);stroke-width:2.9px;"/>
                </g>
                <g id="Layer26" serif:id="Layer2">
                    <path d="M405,213L404.437,259" style="fill:none;stroke:rgb(141,199,116);stroke-width:2.9px;"/>
                    <g transform="matrix(1,0,0,1,10,0)">
                        <path d="M405,213L404.437,259" style="fill:none;stroke:rgb(141,199,116);stroke-width:2.9px;"/>
                    </g>
                </g>
            </g>
            <rect x="402" y="257" width="19" height="6" style="fill:rgb(217,217,217);"/>
            <g transform="matrix(1,0,0,1,-74.2409,-9.85188)">
                <g>
                    <g transform="matrix(1,0,0,1,0,-2)">
                        <rect x="403" y="259" width="17" height="101" style="fill:rgb(102,102,102);stroke:rgb(140,131,131);stroke-width:2.7px;"/>
                    </g>
                    <path d="M406.771,260L406.771,358" style="fill:none;stroke:rgb(140,131,131);stroke-width:2.7px;"/>
                    <g transform="matrix(1,0,0,1,8.22863,0)">
                        <path d="M406.771,260L406.771,358" style="fill:none;stroke:rgb(140,131,131);stroke-width:2.7px;"/>
                    </g>
                </g>
                <g transform="matrix(0.85,0,0,1,63,0)">
                    <path d="M400,259L400,210C406.635,204.563 413.287,204.77 420,210L420,259L400,259Z" style="fill:rgb(72,162,33);stroke:rgb(141,199,116);stroke-width:2.9px;"/>
                    <g id="Layer17" serif:id="Layer1">
                        <path d="M400,210L405,213L415,213L420,210" style="fill:none;stroke:rgb(141,199,116);stroke-width:2.9px;"/>
                    </g>
                    <g id="Layer27" serif:id="Layer2">
                        <path d="M405,213L404.437,259" style="fill:none;stroke:rgb(141,199,116);stroke-width:2.9px;"/>
                        <g transform="matrix(1,0,0,1,10,0)">
                            <path d="M405,213L404.437,259" style="fill:none;stroke:rgb(141,199,116);stroke-width:2.9px;"/>
                        </g>
                    </g>
                </g>
                <rect x="402" y="257" width="19" height="6" style="fill:rgb(217,217,217);"/>
            </g>
            <g transform="matrix(1,0,0,1,-57.352,-14.0741)">
                <g>
                    <g transform="matrix(1,0,0,1,0,-2)">
                        <rect x="403" y="259" width="17" height="101" style="fill:rgb(102,102,102);stroke:rgb(140,131,131);stroke-width:2.7px;"/>
                    </g>
                    <path d="M406.771,260L406.771,358" style="fill:none;stroke:rgb(140,131,131);stroke-width:2.7px;"/>
                    <g transform="matrix(1,0,0,1,8.22863,0)">
                        <path d="M406.771,260L406.771,358" style="fill:none;stroke:rgb(140,131,131);stroke-width:2.7px;"/>
                    </g>
                </g>
                <g transform="matrix(0.85,0,0,1,63,0)">
                    <path d="M400,259L400,210C406.635,204.563 413.287,204.77 420,210L420,259L400,259Z" style="fill:rgb(72,162,33);stroke:rgb(141,199,116);stroke-width:2.9px;"/>
                    <g id="Layer18" serif:id="Layer1">
                        <path d="M400,210L405,213L415,213L420,210" style="fill:none;stroke:rgb(141,199,116);stroke-width:2.9px;"/>
                    </g>
                    <g id="Layer28" serif:id="Layer2">
                        <path d="M405,213L404.437,259" style="fill:none;stroke:rgb(141,199,116);stroke-width:2.9px;"/>
                        <g transform="matrix(1,0,0,1,10,0)">
                            <path d="M405,213L404.437,259" style="fill:none;stroke:rgb(141,199,116);stroke-width:2.9px;"/>
                        </g>
                    </g>
                </g>
                <rect x="402" y="257" width="19" height="6" style="fill:rgb(217,217,217);"/>
            </g>
            <g transform="matrix(1,0,0,1,-57.352,-14.0741)">
                <g>
                    <g transform="matrix(1,0,0,1,0,-2)">
                        <rect x="403" y="259" width="17" height="101" style="fill:rgb(102,102,102);stroke:rgb(140,131,131);stroke-width:2.7px;"/>
                    </g>
                    <path d="M406.771,260L406.771,358" style="fill:none;stroke:rgb(140,131,131);stroke-width:2.7px;"/>
                    <g transform="matrix(1,0,0,1,8.22863,0)">
                        <path d="M406.771,260L406.771,358" style="fill:none;stroke:rgb(140,131,131);stroke-width:2.7px;"/>
                    </g>
                </g>
                <g transform="matrix(0.85,0,0,1,63,0)">
                    <path d="M400,259L400,210C406.635,204.563 413.287,204.77 420,210L420,259L400,259Z" style="fill:rgb(72,162,33);stroke:rgb(141,199,116);stroke-width:2.9px;"/>
                    <g id="Layer19" serif:id="Layer1">
                        <path d="M400,210L405,213L415,213L420,210" style="fill:none;stroke:rgb(141,199,116);stroke-width:2.9px;"/>
                    </g>
                    <g id="Layer29" serif:id="Layer2">
                        <path d="M405,213L404.437,259" style="fill:none;stroke:rgb(141,199,116);stroke-width:2.9px;"/>
                        <g transform="matrix(1,0,0,1,10,0)">
                            <path d="M405,213L404.437,259" style="fill:none;stroke:rgb(141,199,116);stroke-width:2.9px;"/>
                        </g>
                    </g>
                </g>
                <rect x="402" y="257" width="19" height="6" style="fill:rgb(217,217,217);"/>
            </g>
        </g>
        <g transform="matrix(0.710525,0,0,0.710525,-63.3809,-32.3678)">
            <g>
                <g transform="matrix(1,0,0,1,0,-2)">
                    <rect x="403" y="259" width="17" height="101" style="fill:rgb(102,102,102);stroke:rgb(140,131,131);stroke-width:2.7px;"/>
                </g>
                <path d="M406.771,260L406.771,358" style="fill:none;stroke:rgb(140,131,131);stroke-width:2.7px;"/>
                <g transform="matrix(1,0,0,1,8.22863,0)">
                    <path d="M406.771,260L406.771,358" style="fill:none;stroke:rgb(140,131,131);stroke-width:2.7px;"/>
                </g>
            </g>
            <g transform="matrix(0.85,0,0,1,63,0)">
                <path d="M400,259L400,210C406.635,204.563 413.287,204.77 420,210L420,259L400,259Z" style="fill:rgb(72,162,33);stroke:rgb(141,199,116);stroke-width:2.9px;"/>
                <g id="Layer110" serif:id="Layer1">
                    <path d="M400,210L405,213L415,213L420,210" style="fill:none;stroke:rgb(141,199,116);stroke-width:2.9px;"/>
                </g>
                <g id="Layer210" serif:id="Layer2">
                    <path d="M405,213L404.437,259" style="fill:none;stroke:rgb(141,199,116);stroke-width:2.9px;"/>
                    <g transform="matrix(1,0,0,1,10,0)">
                        <path d="M405,213L404.437,259" style="fill:none;stroke:rgb(141,199,116);stroke-width:2.9px;"/>
                    </g>
                </g>
            </g>
            <rect x="402" y="257" width="19" height="6" style="fill:rgb(217,217,217);"/>
        </g>
        <g transform="matrix(0.710525,0,0,0.710525,-51.3809,-29.3678)">
            <g>
                <g transform="matrix(1,0,0,1,0,-2)">
                    <rect x="403" y="259" width="17" height="101" style="fill:rgb(102,102,102);stroke:rgb(140,131,131);stroke-width:2.7px;"/>
                </g>
                <path d="M406.771,260L406.771,358" style="fill:none;stroke:rgb(140,131,131);stroke-width:2.7px;"/>
                <g transform="matrix(1,0,0,1,8.22863,0)">
                    <path d="M406.771,260L406.771,358" style="fill:none;stroke:rgb(140,131,131);stroke-width:2.7px;"/>
                </g>
            </g>
            <g transform="matrix(0.85,0,0,1,63,0)">
                <path d="M400,259L400,210C406.635,204.563 413.287,204.77 420,210L420,259L400,259Z" style="fill:rgb(72,162,33);stroke:rgb(141,199,116);stroke-width:2.9px;"/>
                <g id="Layer111" serif:id="Layer1">
                    <path d="M400,210L405,213L415,213L420,210" style="fill:none;stroke:rgb(141,199,116);stroke-width:2.9px;"/>
                </g>
                <g id="Layer211" serif:id="Layer2">
                    <path d="M405,213L404.437,259" style="fill:none;stroke:rgb(141,199,116);stroke-width:2.9px;"/>
                    <g transform="matrix(1,0,0,1,10,0)">
                        <path d="M405,213L404.437,259" style="fill:none;stroke:rgb(141,199,116);stroke-width:2.9px;"/>
                    </g>
                </g>
            </g>
            <rect x="402" y="257" width="19" height="6" style="fill:rgb(217,217,217);"/>
        </g>
        <g transform="matrix(0.710525,0,0,0.710525,-76.3809,-36.3678)">
            <g>
                <g transform="matrix(1,0,0,1,0,-2)">
                    <rect x="403" y="259" width="17" height="101" style="fill:rgb(102,102,102);stroke:rgb(140,131,131);stroke-width:2.7px;"/>
                </g>
                <path d="M406.771,260L406.771,358" style="fill:none;stroke:rgb(140,131,131);stroke-width:2.7px;"/>
                <g transform="matrix(1,0,0,1,8.22863,0)">
                    <path d="M406.771,260L406.771,358" style="fill:none;stroke:rgb(140,131,131);stroke-width:2.7px;"/>
                </g>
            </g>
            <g transform="matrix(0.85,0,0,1,63,0)">
                <path d="M400,259L400,210C406.635,204.563 413.287,204.77 420,210L420,259L400,259Z" style="fill:rgb(72,162,33);stroke:rgb(141,199,116);stroke-width:2.9px;"/>
                <g id="Layer112" serif:id="Layer1">
                    <path d="M400,210L405,213L415,213L420,210" style="fill:none;stroke:rgb(141,199,116);stroke-width:2.9px;"/>
                </g>
                <g id="Layer212" serif:id="Layer2">
                    <path d="M405,213L404.437,259" style="fill:none;stroke:rgb(141,199,116);stroke-width:2.9px;"/>
                    <g transform="matrix(1,0,0,1,10,0)">
                        <path d="M405,213L404.437,259" style="fill:none;stroke:rgb(141,199,116);stroke-width:2.9px;"/>
                    </g>
                </g>
            </g>
            <rect x="402" y="257" width="19" height="6" style="fill:rgb(217,217,217);"/>
        </g>
        <g transform="matrix(1,0,0,1.02976,0,-3.38564)">
            <path d="M199.183,365.772C199.199,367.34 200.138,368.759 201.599,369.426C231.248,382.823 262.952,383.149 291.817,367.891C293.395,367.048 294.387,365.447 294.413,363.698C294.752,342.047 296.914,201.434 297.182,183.998C297.2,182.841 296.902,181.701 296.319,180.692C292.003,173.226 288.252,165.897 287.21,159.225C256.362,165.506 230.057,164.722 207.21,158.558C205.744,165.687 201.924,172.816 197.928,179.945C197.458,180.786 197.216,181.73 197.226,182.687C197.399,198.889 198.957,344.679 199.183,365.772Z" style="fill:rgb(113,154,222);"/>
        </g>
    </g>
</svg>
