<?xml version="1.0" encoding="UTF-8" standalone="no"?>
<!DOCTYPE svg PUBLIC "-//W3C//DTD SVG 1.1//EN" "http://www.w3.org/Graphics/SVG/1.1/DTD/svg11.dtd">
<svg width="100%" height="100%" viewBox="0 0 500 500" version="1.1" xmlns="http://www.w3.org/2000/svg" xmlns:xlink="http://www.w3.org/1999/xlink" xml:space="preserve" xmlns:serif="http://www.serif.com/" style="fill-rule:evenodd;clip-rule:evenodd;stroke-linecap:round;stroke-linejoin:round;stroke-miterlimit:1.5;">
    <g transform="matrix(1.24873,0,0,1.24873,-50.8341,-65.4963)">
        <path d="M268.707,255.716C268.707,255.716 256.599,283.948 224.278,294.198C199.926,301.921 196.618,290.911 196.468,285.012C196.408,282.396 195.137,279.957 193.027,278.41C188.967,275.363 182.273,272.935 177.707,283.698C175.544,288.797 174.837,293.274 174.893,297.028C175.044,304.739 179.845,311.593 187.041,314.368C195.773,317.713 211.992,321.267 237.674,317.448" style="fill:none;stroke:rgb(212,206,194);stroke-width:1.94px;"/>
        <g transform="matrix(0.786079,0,0,0.786079,65.6222,44.4831)">
            <path d="M179.775,232.019C179.658,230.617 179.645,229.208 179.737,227.804C180.157,223.836 181.347,216.443 185.405,208.007C192.914,192.458 208.069,182.022 225.274,180.552C235.652,179.725 249.319,180.681 266.183,186.141C268.004,186.734 269.726,187.597 271.29,188.703C274.367,190.928 279.525,195.27 284.297,202.272C287.64,207.152 289.436,212.926 289.45,218.842C289.454,231.043 288.311,254.479 280.082,265.307C268.682,280.307 244.482,281.907 244.482,281.907C244.482,281.907 219.482,285.507 202.682,277.707C189.364,271.523 183.713,257.732 181.942,252.28C181.543,250.983 181.284,249.647 181.171,248.295C180.818,244.459 180.043,235.219 179.775,232.019Z" style="fill:rgb(212,206,194);"/>
            <clipPath id="_clip1">
                <path d="M179.775,232.019C179.658,230.617 179.645,229.208 179.737,227.804C180.157,223.836 181.347,216.443 185.405,208.007C192.914,192.458 208.069,182.022 225.274,180.552C235.652,179.725 249.319,180.681 266.183,186.141C268.004,186.734 269.726,187.597 271.29,188.703C274.367,190.928 279.525,195.27 284.297,202.272C287.64,207.152 289.436,212.926 289.45,218.842C289.454,231.043 288.311,254.479 280.082,265.307C268.682,280.307 244.482,281.907 244.482,281.907C244.482,281.907 219.482,285.507 202.682,277.707C189.364,271.523 183.713,257.732 181.942,252.28C181.543,250.983 181.284,249.647 181.171,248.295C180.818,244.459 180.043,235.219 179.775,232.019Z"/>
            </clipPath>
            <g clip-path="url(#_clip1)">
                <g>
                    <path d="M219.682,190.707C219.682,190.707 234.918,191.907 250,187.507" style="fill:none;stroke:rgb(160,159,156);stroke-width:2.47px;"/>
                    <path d="M229.282,190.856L238.682,183.107" style="fill:none;stroke:rgb(160,159,156);stroke-width:2.47px;"/>
                    <path d="M219.682,190.856C219.682,190.856 221.282,186.507 213.882,183.107" style="fill:none;stroke:rgb(160,159,156);stroke-width:2.47px;"/>
                    <path d="M224.86,190.856L234.841,181.631" style="fill:none;stroke:rgb(160,159,156);stroke-width:2.47px;"/>
                    <path d="M238.682,189.182C238.682,189.182 240.526,188.743 243.193,184.965" style="fill:none;stroke:rgb(160,159,156);stroke-width:2.47px;"/>
                    <path d="M231.526,212.965C231.526,212.965 242.14,204.076 250,193.965C250,193.965 259.415,187.301 262.638,186.244" style="fill:none;stroke:rgb(160,159,156);stroke-width:2.47px;"/>
                    <path d="M250,200.743C250,200.743 251.971,197.287 267.749,189.182" style="fill:none;stroke:rgb(160,159,156);stroke-width:2.47px;"/>
                    <path d="M258.874,196.743C258.874,196.743 266.082,194.737 276.971,194.962" style="fill:none;stroke:rgb(160,159,156);stroke-width:2.47px;"/>
                    <path d="M287.193,209.965C287.193,209.965 284.304,204.743 273.638,200.743" style="fill:none;stroke:rgb(160,159,156);stroke-width:2.47px;"/>
                    <path d="M289.449,221.187C289.449,221.187 286.082,208.52 267.749,202.187" style="fill:none;stroke:rgb(160,159,156);stroke-width:2.47px;"/>
                    <path d="M289.449,229.298C289.449,229.298 283.526,211.298 265.415,205.354" style="fill:none;stroke:rgb(160,159,156);stroke-width:2.47px;"/>
                    <path d="M242.749,205.354C242.749,205.354 262.005,203.83 277.432,221.187" style="fill:none;stroke:rgb(160,159,156);stroke-width:2.47px;"/>
                    <path d="M273.638,221.187C273.638,221.187 283.304,231.616 285.971,248.433" style="fill:none;stroke:rgb(160,159,156);stroke-width:2.47px;"/>
                    <path d="M277.432,217.326C277.432,217.326 285.082,223.584 288.082,236.917" style="fill:none;stroke:rgb(160,159,156);stroke-width:2.47px;"/>
                    <path d="M265.415,217.326C265.415,217.326 279.415,230.62 284.082,257.25" style="fill:none;stroke:rgb(160,159,156);stroke-width:2.47px;"/>
                    <path d="M244.638,207.213C244.638,207.213 270.193,216.504 279.804,262.88" style="fill:none;stroke:rgb(160,159,156);stroke-width:2.47px;"/>
                    <path d="M250,217.326C250,217.326 267.657,229.118 277.432,269.377" style="fill:none;stroke:rgb(160,159,156);stroke-width:2.47px;"/>
                    <path d="M234.561,210.698C234.561,210.698 259.092,235.222 271.129,269.377" style="fill:none;stroke:rgb(160,159,156);stroke-width:2.47px;"/>
                    <path d="M234.561,212.965C234.561,212.965 205.665,260.532 201.832,277.198" style="fill:none;stroke:rgb(160,159,156);stroke-width:2.47px;"/>
                    <path d="M231.526,212.965C231.526,212.965 206.332,250.698 197.332,274.532" style="fill:none;stroke:rgb(160,159,156);stroke-width:2.47px;"/>
                    <path d="M224.665,215.365C224.665,215.365 199.332,255.865 193.665,271.198" style="fill:none;stroke:rgb(160,159,156);stroke-width:2.47px;"/>
                    <path d="M191.832,266.365C191.832,266.365 218.165,205.51 237.999,199.604" style="fill:none;stroke:rgb(160,159,156);stroke-width:2.47px;"/>
                    <path d="M220.665,211.032C220.665,211.032 193.332,237.198 188.832,262.698" style="fill:none;stroke:rgb(160,159,156);stroke-width:2.47px;"/>
                    <path d="M236.332,194.962C236.332,194.962 198.332,213.532 184.832,257.865" style="fill:none;stroke:rgb(160,159,156);stroke-width:2.47px;"/>
                    <path d="M214.915,206.532C214.915,206.532 193.332,218.865 182.665,253.198" style="fill:none;stroke:rgb(160,159,156);stroke-width:2.47px;"/>
                    <path d="M228.499,194.962C228.499,194.962 208.249,204.865 198.79,215.365C189.332,225.865 179.674,248.532 179.674,248.532" style="fill:none;stroke:rgb(160,159,156);stroke-width:2.47px;"/>
                    <path d="M217.499,194.962C217.499,194.962 189.682,202.198 179.674,236.865" style="fill:none;stroke:rgb(160,159,156);stroke-width:2.47px;"/>
                    <path d="M206.665,194.962C206.665,194.962 201.665,195.532 194.332,201.532" style="fill:none;stroke:rgb(160,159,156);stroke-width:2.47px;"/>
                    <path d="M234.561,215.914C234.561,215.914 257.332,246.032 268.165,273.198" style="fill:none;stroke:rgb(160,159,156);stroke-width:2.47px;"/>
                    <path d="M231.499,222.198C231.499,222.198 258.665,262.865 263.332,275.365" style="fill:none;stroke:rgb(160,159,156);stroke-width:2.47px;"/>
                    <path d="M229.165,226.032C239.936,242.775 250.584,259.559 258.665,277.198" style="fill:none;stroke:rgb(160,159,156);stroke-width:2.47px;"/>
                    <path d="M225.165,231.518C225.165,231.518 248.832,272.365 256.499,277.198" style="fill:none;stroke:rgb(160,159,156);stroke-width:2.47px;"/>
                    <path d="M221.332,237.698C221.332,237.698 239.165,270.532 252.499,279.865" style="fill:none;stroke:rgb(160,159,156);stroke-width:2.47px;"/>
                    <path d="M218.197,245.082C218.197,245.082 234.832,273.032 246.165,279.865" style="fill:none;stroke:rgb(160,159,156);stroke-width:2.47px;"/>
                    <path d="M215.999,250C215.999,250 229.499,271.774 240.832,282.736" style="fill:none;stroke:rgb(160,159,156);stroke-width:2.47px;"/>
                    <path d="M213.332,254.698C213.332,254.698 226.999,275.607 236.915,282.736" style="fill:none;stroke:rgb(160,159,156);stroke-width:2.47px;"/>
                    <path d="M211.332,258.032C211.332,258.032 221.863,274.941 232.181,282.736" style="fill:none;stroke:rgb(160,159,156);stroke-width:2.47px;"/>
                    <path d="M209.332,263.032C209.332,263.032 220.332,279.107 228.415,282.736" style="fill:none;stroke:rgb(160,159,156);stroke-width:2.47px;"/>
                    <path d="M206.332,268.717C206.332,268.717 214.749,278.865 218.874,281.032" style="fill:none;stroke:rgb(160,159,156);stroke-width:2.47px;"/>
                </g>
            </g>
        </g>
    </g>
</svg>
