<?xml version="1.0" encoding="UTF-8" standalone="no"?>
<!DOCTYPE svg PUBLIC "-//W3C//DTD SVG 1.1//EN" "http://www.w3.org/Graphics/SVG/1.1/DTD/svg11.dtd">
<svg width="100%" height="100%" viewBox="0 0 500 500" version="1.1" xmlns="http://www.w3.org/2000/svg" xmlns:xlink="http://www.w3.org/1999/xlink" xml:space="preserve" xmlns:serif="http://www.serif.com/" style="fill-rule:evenodd;clip-rule:evenodd;stroke-linecap:round;stroke-linejoin:round;stroke-miterlimit:1.5;">
    <g transform="matrix(0.696873,0,0,0.696873,90.0018,80.2334)">
        <path d="M182.928,318.667C182.928,318.667 189.594,269.89 190.928,229.89C191.691,206.976 198.362,177.062 203.921,155.687C208.909,136.66 210.739,116.943 209.337,97.324C208.446,84.479 207.594,72.557 207.594,72.557" style="fill:none;stroke:black;stroke-width:2.59px;"/>
        <g transform="matrix(1.0281,-0.1936,0.176545,0.937537,34.205,55.5644)">
            <path d="M182.928,318.667C182.928,318.667 199.473,268.989 190.928,229.89C188.675,219.585 189.43,205.836 191.693,191.778C196.592,161.429 194.625,130.225 185.964,100.904C181.904,87.24 181.14,70.684 185.69,56.469" style="fill:none;stroke:black;stroke-width:2.58px;"/>
        </g>
        <g transform="matrix(0.9975,0.0706669,-0.0712221,1.00534,39.2114,-13.5041)">
            <path d="M182.928,318.667C182.928,318.667 179.258,269.965 180.591,229.965C181.353,207.123 184.513,177.122 187.084,155.587C189.242,136.782 188.367,117.755 184.492,99.224C181.81,85.904 179.114,73.014 179.114,73.014" style="fill:none;stroke:rgb(238,73,73);stroke-width:2.58px;"/>
        </g>
        <g transform="matrix(0.9975,0.0706669,-0.0712221,1.00534,39.2114,-13.5041)">
            <path d="M182.928,318.667C182.928,318.667 179.258,269.965 180.591,229.965C181.353,207.123 184.513,177.122 187.084,155.587C189.242,136.782 188.367,117.755 184.492,99.224C181.81,85.904 179.114,73.014 179.114,73.014" style="fill:none;stroke:rgb(238,73,73);stroke-width:2.58px;"/>
        </g>
        <g transform="matrix(0.973322,-0.229442,0.231245,0.98097,21.0323,42.0289)">
            <path d="M182.928,318.667C182.928,318.667 179.258,269.965 180.591,229.965C181.353,207.123 184.513,177.122 187.084,155.587C189.242,136.782 188.367,117.755 184.492,99.224C181.81,85.904 179.114,73.014 179.114,73.014" style="fill:none;stroke:rgb(238,73,73);stroke-width:2.58px;"/>
        </g>
        <g id="disks" transform="matrix(1,0,0,1,21.3333,73.3333)">
            <circle cx="169.594" cy="270.557" r="36.667" style="fill:rgb(237,201,71);stroke:rgb(194,159,59);stroke-width:2.59px;"/>
            <g transform="matrix(0.772727,0,0,0.872728,124.211,9.21095)">
                <circle cx="169.594" cy="270.557" r="36.667" style="fill:rgb(237,201,71);stroke:rgb(194,159,59);stroke-width:3.14px;"/>
            </g>
            <g transform="matrix(1.04545,0,0,1.10909,59.6245,0.594533)">
                <circle cx="169.594" cy="270.557" r="36.667" style="fill:rgb(237,201,71);stroke:rgb(194,159,59);stroke-width:2.4px;"/>
            </g>
            <g transform="matrix(0.873476,0,0,0.910589,88.7911,54.3007)">
                <circle cx="169.594" cy="270.557" r="36.667" style="fill:white;"/>
            </g>
        </g>
        <g transform="matrix(0.982728,-0.185055,0.219715,1.16679,-7.27307,26.3145)">
            <path d="M182.928,318.667C182.928,318.667 189.594,269.89 190.928,229.89C191.777,204.406 199.933,170.262 205.74,148.837C209.576,134.764 211.001,120.3 209.971,105.886C208.866,90.357 207.594,72.557 207.594,72.557" style="fill:none;stroke:black;stroke-width:2.36px;"/>
        </g>
        <g transform="matrix(0.982728,-0.185055,0.219715,1.16679,14.512,26.3145)">
            <path d="M182.928,318.667C182.928,318.667 179.258,269.965 180.591,229.965C181.667,197.712 190.551,150.97 193.952,134.076C194.832,129.762 195.489,125.419 195.922,121.058C197.401,106.197 200.845,71.486 200.845,71.486" style="fill:none;stroke:rgb(238,73,73);stroke-width:2.36px;"/>
        </g>
        <g transform="matrix(0.982728,-0.185055,0.219715,1.16679,14.512,26.3145)">
            <path d="M182.928,318.667C182.928,318.667 179.258,269.965 180.591,229.965C181.667,197.712 190.551,150.97 193.952,134.076C194.832,129.762 195.489,125.419 195.922,121.058C197.401,106.197 200.845,71.486 200.845,71.486" style="fill:none;stroke:rgb(238,73,73);stroke-width:2.36px;"/>
        </g>
    </g>
</svg>
