<?xml version="1.0" encoding="UTF-8" standalone="no"?>
<!DOCTYPE svg PUBLIC "-//W3C//DTD SVG 1.1//EN" "http://www.w3.org/Graphics/SVG/1.1/DTD/svg11.dtd">
<svg width="100%" height="100%" viewBox="0 0 500 500" version="1.1" xmlns="http://www.w3.org/2000/svg" xmlns:xlink="http://www.w3.org/1999/xlink" xml:space="preserve" xmlns:serif="http://www.serif.com/" style="fill-rule:evenodd;clip-rule:evenodd;stroke-linecap:round;stroke-linejoin:round;stroke-miterlimit:1.5;">
    <g transform="matrix(-0.00419012,0.619546,-0.484806,-0.00327884,372.148,95.9899)">
        <g transform="matrix(-0.00387488,-0.999992,0.999992,-0.00387488,8.57931,443.195)">
            <path d="M224.538,357.03C225.56,356.747 226.171,355.929 225.985,355.092C225.799,354.255 224.871,353.644 223.786,353.644C210.998,353.639 191.315,353.639 180.28,353.639C178.1,353.639 176.007,352.96 174.464,351.753C172.921,350.545 172.054,348.908 172.054,347.201C172.054,314.535 172.054,167.407 172.054,135.21C172.054,131.763 175.62,128.972 180.026,128.972C191.585,128.972 213.008,128.972 225.751,128.972C226.538,128.975 227.206,128.525 227.32,127.916C227.434,127.308 226.96,126.725 226.206,126.548C208.09,122.35 189.974,119.594 171.859,119.401C167.07,119.394 163.053,122.217 162.55,125.944C151.547,208.084 151.769,285.057 161.46,357.66C162.006,361.69 166.327,364.765 171.505,364.809C189.695,364.75 207.285,361.735 224.538,357.03Z" style="fill:rgb(136,87,87);"/>
        </g>
        <g transform="matrix(1,0,0,1,-1,0)">
            <g transform="matrix(1,0,0,1,0,1)">
                <path d="M250,277.498L250,211.498" style="fill:none;stroke:rgb(136,87,87);stroke-width:2.77px;"/>
            </g>
            <g transform="matrix(1,0,0,1,3,1)">
                <path d="M250,277.498L250,211.498" style="fill:none;stroke:rgb(136,87,87);stroke-width:2.77px;"/>
            </g>
            <g transform="matrix(1,0,0,1,6,1)">
                <path d="M250,277.498L250,211.498" style="fill:none;stroke:rgb(136,87,87);stroke-width:2.77px;"/>
            </g>
            <g transform="matrix(1,0,0,1,9,1)">
                <path d="M250,277.498L250,211.498" style="fill:none;stroke:rgb(136,87,87);stroke-width:2.77px;"/>
            </g>
            <g transform="matrix(1,0,0,1,12,1)">
                <path d="M250,277.498L250,211.498" style="fill:none;stroke:rgb(136,87,87);stroke-width:2.77px;"/>
            </g>
            <g transform="matrix(1,0,0,1,15,1)">
                <path d="M250,277.498L250,211.498" style="fill:none;stroke:rgb(136,87,87);stroke-width:2.77px;"/>
            </g>
            <g transform="matrix(1,0,0,1,18,1)">
                <path d="M250,277.498L250,211.498" style="fill:none;stroke:rgb(136,87,87);stroke-width:2.77px;"/>
            </g>
            <g transform="matrix(1,0,0,1,21,1)">
                <path d="M250,277.498L250,211.498" style="fill:none;stroke:rgb(136,87,87);stroke-width:2.77px;"/>
            </g>
            <g transform="matrix(1,0,0,1,24,1)">
                <path d="M250,277.498L250,211.498" style="fill:none;stroke:rgb(136,87,87);stroke-width:2.77px;"/>
            </g>
            <g transform="matrix(1,0,0,1,27,1)">
                <path d="M250,277.498L250,211.498" style="fill:none;stroke:rgb(136,87,87);stroke-width:2.77px;"/>
            </g>
            <g transform="matrix(1,0,0,1,30,1)">
                <path d="M250,277.498L250,211.498" style="fill:none;stroke:rgb(136,87,87);stroke-width:2.77px;"/>
            </g>
            <g transform="matrix(1,0,0,1,33,1)">
                <path d="M250,277.498L250,211.498" style="fill:none;stroke:rgb(136,87,87);stroke-width:2.77px;"/>
            </g>
            <g transform="matrix(1,0,0,1,36,1)">
                <path d="M250,277.498L250,211.498" style="fill:none;stroke:rgb(136,87,87);stroke-width:2.77px;"/>
            </g>
            <g transform="matrix(1,0,0,1,39,1)">
                <path d="M250,277.498L250,211.498" style="fill:none;stroke:rgb(136,87,87);stroke-width:2.77px;"/>
            </g>
            <g transform="matrix(1,0,0,1,42,1)">
                <path d="M250,277.498L250,211.498" style="fill:none;stroke:rgb(136,87,87);stroke-width:2.77px;"/>
            </g>
            <g transform="matrix(1,0,0,1,45,1)">
                <path d="M250,277.498L250,211.498" style="fill:none;stroke:rgb(136,87,87);stroke-width:2.77px;"/>
            </g>
            <g transform="matrix(1,0,0,1,48,1)">
                <path d="M250,277.498L250,211.498" style="fill:none;stroke:rgb(136,87,87);stroke-width:2.77px;"/>
            </g>
            <g transform="matrix(1,0,0,1,51,1)">
                <path d="M250,277.498L250,211.498" style="fill:none;stroke:rgb(136,87,87);stroke-width:2.77px;"/>
            </g>
            <g transform="matrix(1,0,0,1,54,1)">
                <path d="M250,277.498L250,211.498" style="fill:none;stroke:rgb(136,87,87);stroke-width:2.77px;"/>
            </g>
            <g transform="matrix(1,0,0,1,57,1)">
                <path d="M250,277.498L250,211.498" style="fill:none;stroke:rgb(136,87,87);stroke-width:2.77px;"/>
            </g>
            <g transform="matrix(1,0,0,1,60,1)">
                <path d="M250,277.498L250,211.498" style="fill:none;stroke:rgb(136,87,87);stroke-width:2.77px;"/>
            </g>
            <g transform="matrix(1,0,0,1,63,1)">
                <path d="M250,277.498L250,211.498" style="fill:none;stroke:rgb(136,87,87);stroke-width:2.77px;"/>
            </g>
            <g transform="matrix(1,0,0,1,66,1)">
                <path d="M250,277.498L250,211.498" style="fill:none;stroke:rgb(136,87,87);stroke-width:2.77px;"/>
            </g>
            <g transform="matrix(1,0,0,1,69,1)">
                <path d="M250,277.498L250,211.498" style="fill:none;stroke:rgb(136,87,87);stroke-width:2.77px;"/>
            </g>
            <g transform="matrix(1,0,0,1,72,1)">
                <path d="M250,277.498L250,211.498" style="fill:none;stroke:rgb(136,87,87);stroke-width:2.77px;"/>
            </g>
            <g transform="matrix(1,0,0,1,75,1)">
                <path d="M250,277.498L250,211.498" style="fill:none;stroke:rgb(136,87,87);stroke-width:2.77px;"/>
            </g>
            <g transform="matrix(1,0,0,1,78,1)">
                <path d="M250,277.498L250,211.498" style="fill:none;stroke:rgb(136,87,87);stroke-width:2.77px;"/>
            </g>
            <g transform="matrix(1,0,0,1,81,1)">
                <path d="M250,277.498L250,211.498" style="fill:none;stroke:rgb(136,87,87);stroke-width:2.77px;"/>
            </g>
            <g transform="matrix(1,0,0,1,84,1)">
                <path d="M250,277.498L250,211.498" style="fill:none;stroke:rgb(136,87,87);stroke-width:2.77px;"/>
            </g>
            <g transform="matrix(1,0,0,1,87,1)">
                <path d="M250,277.498L250,211.498" style="fill:none;stroke:rgb(136,87,87);stroke-width:2.77px;"/>
            </g>
            <g transform="matrix(1,0,0,1,90,1)">
                <path d="M250,277.498L250,211.498" style="fill:none;stroke:rgb(136,87,87);stroke-width:2.77px;"/>
            </g>
            <g transform="matrix(1,0,0,1,93,1)">
                <path d="M250,277.498L250,211.498" style="fill:none;stroke:rgb(136,87,87);stroke-width:2.77px;"/>
            </g>
            <g transform="matrix(1,0,0,1,96,1)">
                <path d="M250,277.498L250,211.498" style="fill:none;stroke:rgb(136,87,87);stroke-width:2.77px;"/>
            </g>
            <g transform="matrix(1,0,0,1,99,1)">
                <path d="M250,277.498L250,211.498" style="fill:none;stroke:rgb(136,87,87);stroke-width:2.77px;"/>
            </g>
            <g transform="matrix(1,0,0,1,102,1)">
                <path d="M250,277.498L250,211.498" style="fill:none;stroke:rgb(136,87,87);stroke-width:2.77px;"/>
            </g>
            <g transform="matrix(1,0,0,1,105,1)">
                <path d="M250,277.498L250,211.498" style="fill:none;stroke:rgb(136,87,87);stroke-width:2.77px;"/>
            </g>
            <g transform="matrix(1,0,0,1,108,1)">
                <path d="M250,277.498L250,211.498" style="fill:none;stroke:rgb(136,87,87);stroke-width:2.77px;"/>
            </g>
            <g transform="matrix(1,0,0,1,111,1)">
                <path d="M250,277.498L250,211.498" style="fill:none;stroke:rgb(136,87,87);stroke-width:2.77px;"/>
            </g>
            <g transform="matrix(1,0,0,1,-3,1)">
                <path d="M250,277.498L250,211.498" style="fill:none;stroke:rgb(136,87,87);stroke-width:2.77px;"/>
            </g>
            <g transform="matrix(1,0,0,1,-6,1)">
                <path d="M250,277.498L250,211.498" style="fill:none;stroke:rgb(136,87,87);stroke-width:2.77px;"/>
            </g>
            <g transform="matrix(1,0,0,1,-9,1)">
                <path d="M250,277.498L250,211.498" style="fill:none;stroke:rgb(136,87,87);stroke-width:2.77px;"/>
            </g>
            <g transform="matrix(1,0,0,1,-12,1)">
                <path d="M250,277.498L250,211.498" style="fill:none;stroke:rgb(136,87,87);stroke-width:2.77px;"/>
            </g>
            <g transform="matrix(1,0,0,1,-15,1)">
                <path d="M250,277.498L250,211.498" style="fill:none;stroke:rgb(136,87,87);stroke-width:2.77px;"/>
            </g>
            <g transform="matrix(1,0,0,1,-18,1)">
                <path d="M250,277.498L250,211.498" style="fill:none;stroke:rgb(136,87,87);stroke-width:2.77px;"/>
            </g>
            <g transform="matrix(1,0,0,1,-21,1)">
                <path d="M250,277.498L250,211.498" style="fill:none;stroke:rgb(136,87,87);stroke-width:2.77px;"/>
            </g>
            <g transform="matrix(1,0,0,1,-24,1)">
                <path d="M250,277.498L250,211.498" style="fill:none;stroke:rgb(136,87,87);stroke-width:2.77px;"/>
            </g>
            <g transform="matrix(1,0,0,1,-27,1)">
                <path d="M250,277.498L250,211.498" style="fill:none;stroke:rgb(136,87,87);stroke-width:2.77px;"/>
            </g>
            <g transform="matrix(1,0,0,1,-30,1)">
                <path d="M250,277.498L250,211.498" style="fill:none;stroke:rgb(136,87,87);stroke-width:2.77px;"/>
            </g>
            <g transform="matrix(1,0,0,1,-33,1)">
                <path d="M250,277.498L250,211.498" style="fill:none;stroke:rgb(136,87,87);stroke-width:2.77px;"/>
            </g>
            <g transform="matrix(1,0,0,1,-36,1)">
                <path d="M250,277.498L250,211.498" style="fill:none;stroke:rgb(136,87,87);stroke-width:2.77px;"/>
            </g>
            <g transform="matrix(1,0,0,1,-39,1)">
                <path d="M250,277.498L250,211.498" style="fill:none;stroke:rgb(136,87,87);stroke-width:2.77px;"/>
            </g>
            <g transform="matrix(1,0,0,1,-42,1)">
                <path d="M250,277.498L250,211.498" style="fill:none;stroke:rgb(136,87,87);stroke-width:2.77px;"/>
            </g>
            <g transform="matrix(1,0,0,1,-45,1)">
                <path d="M250,277.498L250,211.498" style="fill:none;stroke:rgb(136,87,87);stroke-width:2.77px;"/>
            </g>
            <g transform="matrix(1,0,0,1,-48,1)">
                <path d="M250,277.498L250,211.498" style="fill:none;stroke:rgb(136,87,87);stroke-width:2.77px;"/>
            </g>
            <g transform="matrix(1,0,0,1,-51,1)">
                <path d="M250,277.498L250,211.498" style="fill:none;stroke:rgb(136,87,87);stroke-width:2.77px;"/>
            </g>
            <g transform="matrix(1,0,0,1,-54,1)">
                <path d="M250,277.498L250,211.498" style="fill:none;stroke:rgb(136,87,87);stroke-width:2.77px;"/>
            </g>
            <g transform="matrix(1,0,0,1,-57,1)">
                <path d="M250,277.498L250,211.498" style="fill:none;stroke:rgb(136,87,87);stroke-width:2.77px;"/>
            </g>
            <g transform="matrix(1,0,0,1,-60,1)">
                <path d="M250,277.498L250,211.498" style="fill:none;stroke:rgb(136,87,87);stroke-width:2.77px;"/>
            </g>
            <g transform="matrix(1,0,0,1,-63,1)">
                <path d="M250,277.498L250,211.498" style="fill:none;stroke:rgb(136,87,87);stroke-width:2.77px;"/>
            </g>
            <g transform="matrix(1,0,0,1,-66,1)">
                <path d="M250,277.498L250,211.498" style="fill:none;stroke:rgb(136,87,87);stroke-width:2.77px;"/>
            </g>
            <g transform="matrix(1,0,0,1,-69,1)">
                <path d="M250,277.498L250,211.498" style="fill:none;stroke:rgb(136,87,87);stroke-width:2.77px;"/>
            </g>
            <g transform="matrix(1,0,0,1,-72,1)">
                <path d="M250,277.498L250,211.498" style="fill:none;stroke:rgb(136,87,87);stroke-width:2.77px;"/>
            </g>
            <g transform="matrix(1,0,0,1,-75,1)">
                <path d="M250,277.498L250,211.498" style="fill:none;stroke:rgb(136,87,87);stroke-width:2.77px;"/>
            </g>
            <g transform="matrix(1,0,0,1,-78,1)">
                <path d="M250,277.498L250,211.498" style="fill:none;stroke:rgb(136,87,87);stroke-width:2.77px;"/>
            </g>
            <g transform="matrix(1,0,0,1,-81,1)">
                <path d="M250,277.498L250,211.498" style="fill:none;stroke:rgb(136,87,87);stroke-width:2.77px;"/>
            </g>
            <g transform="matrix(1,0,0,1,-84,1)">
                <path d="M250,277.498L250,211.498" style="fill:none;stroke:rgb(136,87,87);stroke-width:2.77px;"/>
            </g>
            <g transform="matrix(1,0,0,1,-87,1)">
                <path d="M250,277.498L250,211.498" style="fill:none;stroke:rgb(136,87,87);stroke-width:2.77px;"/>
            </g>
            <g transform="matrix(1,0,0,1,-90,1)">
                <path d="M250,277.498L250,211.498" style="fill:none;stroke:rgb(136,87,87);stroke-width:2.77px;"/>
            </g>
            <g transform="matrix(1,0,0,1,-93,1)">
                <path d="M250,277.498L250,211.498" style="fill:none;stroke:rgb(136,87,87);stroke-width:2.77px;"/>
            </g>
            <g transform="matrix(1,0,0,1,-96,1)">
                <path d="M250,277.498L250,211.498" style="fill:none;stroke:rgb(136,87,87);stroke-width:2.77px;"/>
            </g>
            <g transform="matrix(1,0,0,1,-99,1)">
                <path d="M250,277.498L250,211.498" style="fill:none;stroke:rgb(136,87,87);stroke-width:2.77px;"/>
            </g>
            <g transform="matrix(1,0,0,1,-102,1)">
                <path d="M250,277.498L250,211.498" style="fill:none;stroke:rgb(136,87,87);stroke-width:2.77px;"/>
            </g>
            <g transform="matrix(1,0,0,1,-105,1)">
                <path d="M250,277.498L250,211.498" style="fill:none;stroke:rgb(136,87,87);stroke-width:2.77px;"/>
            </g>
            <g transform="matrix(1,0,0,1,-108,1)">
                <path d="M250,277.498L250,211.498" style="fill:none;stroke:rgb(136,87,87);stroke-width:2.77px;"/>
            </g>
            <g transform="matrix(1,0,0,1,-111,1)">
                <path d="M250,277.498L250,211.498" style="fill:none;stroke:rgb(136,87,87);stroke-width:2.77px;"/>
            </g>
        </g>
    </g>
</svg>
