<?xml version="1.0" encoding="UTF-8" standalone="no"?>
<!DOCTYPE svg PUBLIC "-//W3C//DTD SVG 1.1//EN" "http://www.w3.org/Graphics/SVG/1.1/DTD/svg11.dtd">
<svg width="100%" height="100%" viewBox="0 0 500 500" version="1.1" xmlns="http://www.w3.org/2000/svg" xmlns:xlink="http://www.w3.org/1999/xlink" xml:space="preserve" xmlns:serif="http://www.serif.com/" style="fill-rule:evenodd;clip-rule:evenodd;stroke-linejoin:round;stroke-miterlimit:2;">
    <g transform="matrix(0.587623,-0.168146,0.168146,0.587623,62.4287,145.658)">
        <path d="M79.664,369.496C79.664,369.496 65.775,387.882 47.442,385.771C29.108,383.66 40.331,361.66 40.331,361.66C50.523,362.971 60.437,357.878 70.331,352.327L79.664,369.496Z" style="fill:rgb(231,206,165);"/>
        <path d="M70.622,351.554L121.908,315.925L134.193,335.973L80.765,369.496C72.585,366.395 69.278,360.369 70.622,351.554Z" style="fill:rgb(229,227,230);"/>
        <g transform="matrix(1,0,0,1,-2,0)">
            <path d="M123.511,315.973L456.011,112.973C456.011,112.973 465.511,112.973 462.511,120.973L136.011,335.973C123.72,334.723 119.803,327.89 123.511,315.973Z" style="fill:rgb(176,138,87);"/>
        </g>
    </g>
</svg>
