<?xml version="1.0" encoding="UTF-8" standalone="no"?>
<!DOCTYPE svg PUBLIC "-//W3C//DTD SVG 1.1//EN" "http://www.w3.org/Graphics/SVG/1.1/DTD/svg11.dtd">
<svg width="100%" height="100%" viewBox="0 0 500 500" version="1.1" xmlns="http://www.w3.org/2000/svg" xmlns:xlink="http://www.w3.org/1999/xlink" xml:space="preserve" xmlns:serif="http://www.serif.com/" style="fill-rule:evenodd;clip-rule:evenodd;stroke-linejoin:round;stroke-miterlimit:2;">
    <g transform="matrix(0.945508,0,0,0.945508,14.8293,25.5717)">
        <g transform="matrix(0.999609,-0.0279767,0.0279767,0.999609,-6.4159,2.02121)">
            <path d="M248.146,307.953C251.105,311.159 244.522,317.777 241.896,311.453C240.785,308.775 242.157,308.097 242.842,307.926C243.058,307.869 243.215,307.684 243.236,307.462C243.249,306.849 243.184,305.649 242.453,304.557C241.243,302.739 240.638,300.586 240.724,298.404C241.363,281.508 243.646,223.349 243.646,223.349L253.896,222.974C253.896,222.974 250.742,287.883 250.11,300.9C250.051,302.096 249.633,303.246 248.91,304.199C248.122,305.184 247.831,306.45 248.146,307.953Z" style="fill:white;fill-opacity:0.65;"/>
        </g>
        <path d="M265.542,220.64C265.542,220.64 246.772,226.288 232.876,220.64C232.876,220.64 230.532,219.073 232.876,218.033C232.876,218.033 230.179,217.793 229.779,216.193L230.979,215.073C230.979,215.073 231.044,202.334 231.057,199.879C231.058,199.627 231.127,199.38 231.257,199.163C231.771,198.651 233.203,197.562 236.892,197.173C237.635,197.09 238.21,196.484 238.254,195.737C238.499,191.656 239.228,179.297 239.547,173.891C239.671,171.797 240.594,169.831 242.127,168.399C244.939,165.779 249.979,163.217 256.099,169.495C257.111,170.515 257.717,171.869 257.805,173.303C258.139,178.468 258.984,192.189 259.231,196.198C259.27,196.831 259.747,197.35 260.375,197.442C261.958,197.608 264.874,198.093 266.372,199.201C266.728,199.573 266.924,200.069 266.919,200.584C266.939,203.822 266.819,215.873 266.819,215.873C266.819,215.873 268.179,215.713 267.459,216.913L265.542,218.273C266.652,219.062 266.78,219.851 265.542,220.64Z" style="fill:rgb(64,64,64);"/>
    </g>
</svg>
