<?xml version="1.0" encoding="UTF-8" standalone="no"?>
<!DOCTYPE svg PUBLIC "-//W3C//DTD SVG 1.1//EN" "http://www.w3.org/Graphics/SVG/1.1/DTD/svg11.dtd">
<svg width="100%" height="100%" viewBox="0 0 500 500" version="1.1" xmlns="http://www.w3.org/2000/svg" xmlns:xlink="http://www.w3.org/1999/xlink" xml:space="preserve" xmlns:serif="http://www.serif.com/" style="fill-rule:evenodd;clip-rule:evenodd;stroke-linecap:round;stroke-linejoin:round;stroke-miterlimit:1.5;">
    <g transform="matrix(0.21938,0,0,0.21938,198.727,194.042)">
        <g transform="matrix(1.00805,0,0,1.0122,-988.457,-119.567)">
            <path d="M1226.61,182.725C1242.87,182.494 1257.34,203.379 1272.59,208.052C1327.58,224.902 1326.51,247.669 1356.53,314.551C1364.02,331.237 1389.75,344.377 1394.83,365.113C1400.31,387.499 1387.69,426.892 1380.12,441.944C1362.28,477.388 1355.02,493.282 1309.56,511.782C1281.42,523.233 1274.75,557.526 1241.67,557.526C1204.11,557.526 1176.24,497.961 1146.63,481.445C1101.98,456.535 1062.16,465.484 1049.19,414.977C1045.75,401.574 1028.22,398.928 1028.68,383.673C1029.46,357.547 1046.25,350.724 1058.45,327.487C1068.32,308.68 1092.6,308.624 1106.78,290.153C1130.23,259.608 1147.65,213.338 1185.66,203.776C1198.43,200.566 1213.04,182.917 1226.61,182.725Z" style="fill:rgb(102,189,231);stroke:rgb(157,210,236);stroke-width:16.88px;"/>
        </g>
        <path d="M378.996,198.821C378.996,198.821 343.814,201.159 320.121,288.267C296.428,375.375 317.334,394.19 317.334,394.19" style="fill:none;stroke:rgb(157,210,236);stroke-width:17.05px;"/>
        <path d="M127.236,174.125C127.236,174.125 106.881,239.761 171.69,255.072C236.498,270.383 213.502,200 213.502,200" style="fill:none;stroke:rgb(157,210,236);stroke-width:17.05px;"/>
        <path d="M217.464,86.411C217.464,86.411 223.258,192.713 283.188,87.108" style="fill:none;stroke:rgb(157,210,236);stroke-width:17.05px;"/>
        <path d="M65.766,296.505C65.766,296.505 97.125,291.873 89.459,250C81.794,208.127 74.825,226.246 74.825,226.246" style="fill:none;stroke:rgb(157,210,236);stroke-width:17.05px;"/>
        <path d="M170.835,371.194C170.835,371.194 251.132,318.39 273.431,259.426" style="fill:none;stroke:rgb(157,210,236);stroke-width:17.05px;"/>
    </g>
</svg>
