<?xml version="1.0" encoding="UTF-8" standalone="no"?>
<!DOCTYPE svg PUBLIC "-//W3C//DTD SVG 1.1//EN" "http://www.w3.org/Graphics/SVG/1.1/DTD/svg11.dtd">
<svg width="100%" height="100%" viewBox="0 0 500 500" version="1.1" xmlns="http://www.w3.org/2000/svg" xmlns:xlink="http://www.w3.org/1999/xlink" xml:space="preserve" xmlns:serif="http://www.serif.com/" style="fill-rule:evenodd;clip-rule:evenodd;stroke-linecap:round;stroke-linejoin:round;stroke-miterlimit:1.5;">
    <g transform="matrix(1,0,0,1,-9.625,-9.625)">
        <g transform="matrix(1.44622,0,0,1.44622,-101.015,-118.166)">
            <g transform="matrix(0.713068,0,0,0.713068,59.3869,86.3664)">
                <rect x="169.094" y="147.89" width="176" height="176" style="fill:white;stroke:white;stroke-width:1.75px;"/>
            </g>
            <g id="switch" transform="matrix(0.499704,0,0,0.668369,136.603,104.671)">
                <path d="M226.928,198.557L226.761,250L197.761,250L226.928,198.557Z" style="fill:rgb(166,166,166);stroke:rgb(166,166,166);stroke-width:2.11px;"/>
                <path d="M197.761,250L180.094,250L206.761,198.557L226.928,198.557L197.761,250Z" style="fill:white;stroke:rgb(166,166,166);stroke-width:2.11px;"/>
            </g>
        </g>
        <path d="M159.25,340.75L340.75,340.75L340.75,159.25L360,180L360,360L180,360L159.25,340.75Z" style="fill:rgb(166,166,166);"/>
    </g>
</svg>
