<?xml version="1.0" encoding="UTF-8" standalone="no"?>
<!DOCTYPE svg PUBLIC "-//W3C//DTD SVG 1.1//EN" "http://www.w3.org/Graphics/SVG/1.1/DTD/svg11.dtd">
<svg width="100%" height="100%" viewBox="0 0 500 500" version="1.1" xmlns="http://www.w3.org/2000/svg" xmlns:xlink="http://www.w3.org/1999/xlink" xml:space="preserve" xmlns:serif="http://www.serif.com/" style="fill-rule:evenodd;clip-rule:evenodd;stroke-linecap:round;stroke-linejoin:round;stroke-miterlimit:1.5;">
    <g id="sellotape" transform="matrix(1,0,0,1,-32,-2.93307)">
        <path d="M244.684,299.716L305.428,317.478L330.428,306.97L345.928,291.63L358.182,269.706L361.339,243.206L355.678,222.956L347.678,207.956L343.086,202.706L347.678,200.956L358.182,190.706L369.178,202.706L374.178,213.456C374.178,213.456 383.33,240.308 382.504,250.382L378.428,276.706L367.928,298.706L358.182,311.706L343.428,323.706L330.428,331.456L319.178,334.956L307.678,338.644L284.178,338.644L270.928,335.456L260.678,331.706L250,326.456L240.678,320.206L234.678,314.706L227.146,306.97L244.684,299.716Z" style="fill:rgb(234,233,175);fill-opacity:0.82;"/>
        <path d="M213.928,287.473C213.928,287.473 201.428,272.642 199.928,266.392C198.428,260.142 192.464,248.892 193.071,229.142C193.678,209.392 201.928,195.142 201.928,195.142L216.178,173.392L238.678,156.642L254.928,149.642L275.626,146.07L302.838,149.642L318.428,155.142L329.678,162.12L341.178,170.642L351.178,181.392L358.182,189.892L345.178,205.361L331.678,196.142L297.928,183.286L278.428,186.392L260.678,192.892L250,200.642L239.678,212.142C239.678,212.142 226.365,246.392 227.146,246.392C227.928,246.392 232.22,275.392 232.22,275.392L240.942,287.892L250,298.892L227.146,306.97L213.928,287.473Z" style="fill:rgb(234,233,175);fill-opacity:0.8;"/>
        <path d="M244.684,291.63C244.684,291.63 299.684,298.689 321.684,269.189C321.684,269.189 339.738,251.837 343.086,215.689L343.086,205.361C343.086,205.361 374.684,239.542 353.934,280.542C333.184,321.542 301.184,317.478 301.184,317.478L262.434,310.292L244.684,291.63Z" style="fill:rgb(143,139,125);"/>
        <path d="M150.759,359.796L124.592,332.501C133.065,323.371 142.939,314.767 154.967,306.97L172.3,298.335L182.3,295.001L193.071,291.835L212.3,287.473L232.22,313.501L229.3,315.668L217.467,317.59L208.8,320.335L199.3,323.635L186.8,330.001L178.406,335.501L166.467,343.835L158.467,351.168L150.759,359.796Z" style="fill:rgb(234,233,175);fill-opacity:0.82;"/>
        <g transform="matrix(1.02829,0,0,1.02829,42.4622,5.17294)">
            <circle cx="244.853" cy="238.463" r="85.833" style="fill:none;stroke:rgb(234,233,175);stroke-width:3.45px;"/>
            <g transform="matrix(0.760194,0,0,0.760194,58.7171,57.1847)">
                <circle cx="244.853" cy="238.463" r="85.833" style="fill:none;stroke:rgb(198,188,153);stroke-width:13.01px;"/>
            </g>
            <path d="M193.019,277.014C193.019,277.014 291.186,296.906 292.352,194.68" style="fill:none;stroke:rgb(198,188,153);stroke-width:3.45px;"/>
            <path d="M179.004,293.493C179.004,293.493 169.917,280.999 162.248,270.454C151.878,256.195 146.348,238.991 146.467,221.362C146.555,211.859 147.927,201.195 151.804,190.426C151.804,190.426 164.804,160.093 189.137,148.093C189.137,148.093 199.664,141.57 216.574,138.341C226.127,136.506 235.949,136.584 245.472,138.571C253.797,140.318 261.643,143.044 269.024,146.721C283.431,153.9 296.067,164.706 307.033,178.933" style="fill:none;stroke:rgb(234,233,175);stroke-width:3.45px;"/>
            <path d="M165.537,274.533C165.537,274.533 110.87,279.533 79.87,318.199L105.203,344.866C105.203,344.866 136.537,305.787 184.537,301.493" style="fill:none;stroke:rgb(234,233,175);stroke-width:3.45px;"/>
        </g>
    </g>
</svg>
