<?xml version="1.0" encoding="UTF-8" standalone="no"?>
<!DOCTYPE svg PUBLIC "-//W3C//DTD SVG 1.1//EN" "http://www.w3.org/Graphics/SVG/1.1/DTD/svg11.dtd">
<svg width="100%" height="100%" viewBox="0 0 500 500" version="1.1" xmlns="http://www.w3.org/2000/svg" xmlns:xlink="http://www.w3.org/1999/xlink" xml:space="preserve" xmlns:serif="http://www.serif.com/" style="fill-rule:evenodd;clip-rule:evenodd;stroke-linecap:round;stroke-linejoin:round;stroke-miterlimit:1.5;">
    <g transform="matrix(0.124359,0,0,0.124359,223.342,220.994)">
        <path d="M301.089,207.355C301.089,207.355 176.33,327.893 136.099,366.762C123.757,378.689 105.737,382.621 89.549,376.919C80.953,373.886 75.159,368.246 72.106,359.474C66.226,342.601 70.589,323.85 83.312,311.305C125.165,270.036 262.2,134.92 299.59,98.053C309.874,87.909 324.983,84.4 338.685,88.973C346.2,91.488 351.736,96.292 355.349,103.264C362.335,116.863 359.621,133.429 348.66,144.087C313.339,178.472 208.44,280.478 176.453,311.582C167.064,320.714 152.949,322.958 141.191,317.187C135.053,314.171 131.321,309.378 129.727,303.005C126.928,291.818 130.41,279.992 138.824,272.105C166.424,246.24 258.422,160.021 258.422,160.021" style="fill:none;stroke:rgb(175,65,99);stroke-width:14.74px;"/>
    </g>
    <g transform="matrix(0.0820028,-0.0934923,0.0934923,0.0820028,216.274,250.927)">
        <path d="M301.089,207.355C301.089,207.355 176.33,327.893 136.099,366.762C123.757,378.689 105.737,382.621 89.549,376.919C80.953,373.886 75.159,368.246 72.106,359.474C66.226,342.601 70.589,323.85 83.312,311.305C125.165,270.036 262.2,134.92 299.59,98.053C309.874,87.909 324.983,84.4 338.685,88.973C346.2,91.488 351.736,96.292 355.349,103.264C362.335,116.863 359.621,133.429 348.66,144.087C313.339,178.472 208.44,280.478 176.453,311.582C167.064,320.714 152.949,322.958 141.191,317.187C135.053,314.171 131.321,309.378 129.727,303.005C126.928,291.818 130.41,279.992 138.824,272.105C166.424,246.24 258.422,160.021 258.422,160.021" style="fill:none;stroke:rgb(118,65,175);stroke-width:14.74px;"/>
    </g>
    <g transform="matrix(0.0367053,-0.118819,0.118819,0.0367053,202.093,256.186)">
        <path d="M301.089,207.355C301.089,207.355 176.33,327.893 136.099,366.762C123.757,378.689 105.737,382.621 89.549,376.919C80.953,373.886 75.159,368.246 72.106,359.474C66.226,342.601 70.589,323.85 83.312,311.305C125.165,270.036 262.2,134.92 299.59,98.053C309.874,87.909 324.983,84.4 338.685,88.973C346.2,91.488 351.736,96.292 355.349,103.264C362.335,116.863 359.621,133.429 348.66,144.087C313.339,178.472 208.44,280.478 176.453,311.582C167.064,320.714 152.949,322.958 141.191,317.187C135.053,314.171 131.321,309.378 129.727,303.005C126.928,291.818 130.41,279.992 138.824,272.105C166.424,246.24 258.422,160.021 258.422,160.021" style="fill:none;stroke:rgb(65,71,175);stroke-width:14.74px;"/>
    </g>
    <g transform="matrix(-0.050029,-0.113852,0.113852,-0.050029,240.027,273.914)">
        <path d="M301.089,207.355C301.089,207.355 176.33,327.893 136.099,366.762C123.757,378.689 105.737,382.621 89.549,376.919C80.953,373.886 75.159,368.246 72.106,359.474C66.226,342.601 70.589,323.85 83.312,311.305C125.165,270.036 262.2,134.92 299.59,98.053C309.874,87.909 324.983,84.4 338.685,88.973C346.2,91.488 351.736,96.292 355.349,103.264C362.335,116.863 359.621,133.429 348.66,144.087C313.339,178.472 208.44,280.478 176.453,311.582C167.064,320.714 152.949,322.958 141.191,317.187C135.053,314.171 131.321,309.378 129.727,303.005C126.928,291.818 130.41,279.992 138.824,272.105C166.424,246.24 258.422,160.021 258.422,160.021" style="fill:none;stroke:rgb(65,175,104);stroke-width:14.74px;"/>
    </g>
    <g transform="matrix(-0.100529,-0.0732064,0.0732064,-0.100529,261.264,305.167)">
        <path d="M301.089,207.355C301.089,207.355 176.33,327.893 136.099,366.762C123.757,378.689 105.737,382.621 89.549,376.919C80.953,373.886 75.159,368.246 72.106,359.474C66.226,342.601 70.589,323.85 83.312,311.305C125.165,270.036 262.2,134.92 299.59,98.053C309.874,87.909 324.983,84.4 338.685,88.973C346.2,91.488 351.736,96.292 355.349,103.264C362.335,116.863 359.621,133.429 348.66,144.087C313.339,178.472 208.44,280.478 176.453,311.582C167.064,320.714 152.949,322.958 141.191,317.187C135.053,314.171 131.321,309.378 129.727,303.005C126.928,291.818 130.41,279.992 138.824,272.105C166.424,246.24 258.422,160.021 258.422,160.021" style="fill:none;stroke:rgb(65,175,104);stroke-width:14.74px;"/>
    </g>
    <g transform="matrix(-0.0632983,-0.107045,0.107045,-0.0632983,260.364,290.756)">
        <path d="M301.089,207.355C301.089,207.355 176.33,327.893 136.099,366.762C123.757,378.689 105.737,382.621 89.549,376.919C80.953,373.886 75.159,368.246 72.106,359.474C66.226,342.601 70.589,323.85 83.312,311.305C125.165,270.036 262.2,134.92 299.59,98.053C309.874,87.909 324.983,84.4 338.685,88.973C346.2,91.488 351.736,96.292 355.349,103.264C362.335,116.863 359.621,133.429 348.66,144.087C313.339,178.472 208.44,280.478 176.453,311.582C167.064,320.714 152.949,322.958 141.191,317.187C135.053,314.171 131.321,309.378 129.727,303.005C126.928,291.818 130.41,279.992 138.824,272.105C166.424,246.24 258.422,160.021 258.422,160.021" style="fill:none;stroke:rgb(212,210,90);stroke-width:14.74px;"/>
    </g>
    <g transform="matrix(-0.106628,-0.0639983,0.0639983,-0.106628,220.637,298.429)">
        <path d="M301.089,207.355C301.089,207.355 176.33,327.893 136.099,366.762C123.757,378.689 105.737,382.621 89.549,376.919C80.953,373.886 75.159,368.246 72.106,359.474C66.226,342.601 70.589,323.85 83.312,311.305C125.165,270.036 262.2,134.92 299.59,98.053C309.874,87.909 324.983,84.4 338.685,88.973C346.2,91.488 351.736,96.292 355.349,103.264C362.335,116.863 359.621,133.429 348.66,144.087C313.339,178.472 208.44,280.478 176.453,311.582C167.064,320.714 152.949,322.958 141.191,317.187C135.053,314.171 131.321,309.378 129.727,303.005C126.928,291.818 130.41,279.992 138.824,272.105C166.424,246.24 258.422,160.021 258.422,160.021" style="fill:none;stroke:rgb(212,210,90);stroke-width:14.74px;"/>
    </g>
    <g transform="matrix(0.11597,-0.0449024,0.0449024,0.11597,196.659,220.583)">
        <path d="M301.089,207.355C301.089,207.355 176.33,327.893 136.099,366.762C123.757,378.689 105.737,382.621 89.549,376.919C80.953,373.886 75.159,368.246 72.106,359.474C66.226,342.601 70.589,323.85 83.312,311.305C125.165,270.036 262.2,134.92 299.59,98.053C309.874,87.909 324.983,84.4 338.685,88.973C346.2,91.488 351.736,96.292 355.349,103.264C362.335,116.863 359.621,133.429 348.66,144.087C313.339,178.472 208.44,280.478 176.453,311.582C167.064,320.714 152.949,322.958 141.191,317.187C135.053,314.171 131.321,309.378 129.727,303.005C126.928,291.818 130.41,279.992 138.824,272.105C166.424,246.24 258.422,160.021 258.422,160.021" style="fill:none;stroke:rgb(175,65,99);stroke-width:14.74px;"/>
    </g>
    <g transform="matrix(0.00295192,-0.124324,0.124324,0.00295192,259.964,259.994)">
        <path d="M301.089,207.355C301.089,207.355 176.33,327.893 136.099,366.762C123.757,378.689 105.737,382.621 89.549,376.919C80.953,373.886 75.159,368.246 72.106,359.474C66.226,342.601 70.589,323.85 83.312,311.305C125.165,270.036 262.2,134.92 299.59,98.053C309.874,87.909 324.983,84.4 338.685,88.973C346.2,91.488 351.736,96.292 355.349,103.264C362.335,116.863 359.621,133.429 348.66,144.087C313.339,178.472 208.44,280.478 176.453,311.582C167.064,320.714 152.949,322.958 141.191,317.187C135.053,314.171 131.321,309.378 129.727,303.005C126.928,291.818 130.41,279.992 138.824,272.105C166.424,246.24 258.422,160.021 258.422,160.021" style="fill:none;stroke:rgb(175,65,99);stroke-width:14.74px;"/>
    </g>
    <g transform="matrix(-0.0707494,-0.102273,0.102273,-0.0707494,251.049,255.881)">
        <path d="M301.089,207.355C301.089,207.355 176.33,327.893 136.099,366.762C123.757,378.689 105.737,382.621 89.549,376.919C80.953,373.886 75.159,368.246 72.106,359.474C66.226,342.601 70.589,323.85 83.312,311.305C125.165,270.036 262.2,134.92 299.59,98.053C309.874,87.909 324.983,84.4 338.685,88.973C346.2,91.488 351.736,96.292 355.349,103.264C362.335,116.863 359.621,133.429 348.66,144.087C313.339,178.472 208.44,280.478 176.453,311.582C167.064,320.714 152.949,322.958 141.191,317.187C135.053,314.171 131.321,309.378 129.727,303.005C126.928,291.818 130.41,279.992 138.824,272.105C166.424,246.24 258.422,160.021 258.422,160.021" style="fill:none;stroke:rgb(65,71,175);stroke-width:14.74px;"/>
    </g>
</svg>
