<?xml version="1.0" encoding="UTF-8" standalone="no"?>
<!DOCTYPE svg PUBLIC "-//W3C//DTD SVG 1.1//EN" "http://www.w3.org/Graphics/SVG/1.1/DTD/svg11.dtd">
<svg width="100%" height="100%" viewBox="0 0 500 500" version="1.1" xmlns="http://www.w3.org/2000/svg" xmlns:xlink="http://www.w3.org/1999/xlink" xml:space="preserve" xmlns:serif="http://www.serif.com/" style="fill-rule:evenodd;clip-rule:evenodd;stroke-linejoin:round;stroke-miterlimit:2;">
    <g transform="matrix(1,0,0,1,16.4955,-0.441807)">
        <path d="M202.991,104.454L208.26,86.454L194.26,84.01C194.26,84.01 189.816,88.566 189.705,97.454L202.991,104.454Z" style="fill:rgb(50,101,167);"/>
        <path d="M216.372,121.18L213.26,121.18L211.372,136.847L206.372,136.958C206.372,136.958 195.816,153.847 173.927,160.847L173.705,159.069C173.705,159.069 194.038,136.423 201.26,117.847C201.26,117.847 196.389,111.605 202.991,108.938L216.372,121.18Z" style="fill:rgb(50,101,167);"/>
        <path d="M232.139,164.823L234.472,147.544C234.472,147.544 247.472,150.877 264.139,147.877L265.805,164.823C254.357,167.992 243.143,167.877 232.139,164.823Z" style="fill:rgb(50,101,167);"/>
        <path d="M203.622,391.313C203.622,391.313 204.422,411.713 234.022,416.313C234.022,416.313 256.622,418.913 275.022,412.913C275.022,412.913 286.422,408.513 289.822,389.313L289.022,386.913L292.022,259.721L293.111,258.388C293.111,258.388 294.555,254.179 289.555,248.068L274.777,231.846L270.666,188.268C270.666,188.268 273.444,186.712 272.999,184.045L275.333,182.045L275.666,168.823L265.111,165.49C265.111,165.49 250.666,167.596 232.333,164.823L222.999,167.717L222.777,181.384L224.777,183.495C224.777,183.495 225.111,186.495 227.222,187.495L221.888,230.94L220.333,233.94C220.333,233.94 202.555,248.607 202.999,256.496L204.111,258.496L204.222,387.04C203.788,388.464 203.522,389.889 203.622,391.313Z" style="fill:rgb(230,230,230);"/>
        <path d="M263.535,149.073L264.035,145.823C264.035,145.823 263.66,145.073 261.41,144.823L261.035,133.823C261.035,133.823 267.785,124.823 291.16,125.448L291.035,123.323L279.66,123.073C279.66,123.073 254.035,98.035 211.16,88.073L208.535,90.111L207.035,89.736C207.035,89.736 201.573,94.236 202.991,101.861L205.41,102.736L202.991,109.236C202.991,109.236 202.886,111.236 204.286,111.536L219.486,123.936L211.586,126.536L211.386,136.136L226.786,131.736L229.186,133.836L232.139,132.136C232.139,132.136 234.286,133.736 237.586,133.236L237.286,143.736C237.286,143.736 235.186,143.936 234.686,145.336L234.386,147.544C243.028,152.789 253.025,152.059 263.535,149.073ZM275.038,124.398C275.038,124.398 265.61,126.684 261.895,129.541C261.895,129.541 253.324,117.684 260.467,112.541L275.038,124.398Z" style="fill:rgb(230,230,230);"/>
    </g>
</svg>
