<?xml version="1.0" encoding="UTF-8" standalone="no"?><!DOCTYPE svg PUBLIC "-//W3C//DTD SVG 1.1//EN" "http://www.w3.org/Graphics/SVG/1.1/DTD/svg11.dtd"><svg width="100%" height="100%" viewBox="0 0 500 500" version="1.1" xmlns="http://www.w3.org/2000/svg" xmlns:xlink="http://www.w3.org/1999/xlink" xml:space="preserve" xmlns:serif="http://www.serif.com/" style="fill-rule:evenodd;clip-rule:evenodd;stroke-linejoin:round;stroke-miterlimit:2;"><path d="M269.278,344.834c-1.752,1.398 -4.183,1.579 -6.123,0.456c-15.474,-8.957 -82.225,-47.594 -99.902,-57.826c-2.544,-1.473 -3.787,-4.466 -3.036,-7.308c5.026,-18.998 23.442,-88.617 28.227,-106.704c0.683,-2.584 2.93,-4.451 5.595,-4.649c19.774,-1.473 99.461,-7.405 118.031,-8.788c2.323,-0.173 4.5,1.146 5.423,3.285c6.975,16.171 35.591,82.513 43.74,101.406c1.284,2.976 0.417,6.444 -2.117,8.465c-16.549,13.201 -75.975,60.605 -89.838,71.663Z" style="fill:#e0bb97;"/></svg>