<?xml version="1.0" encoding="UTF-8" standalone="no"?>
<!DOCTYPE svg PUBLIC "-//W3C//DTD SVG 1.1//EN" "http://www.w3.org/Graphics/SVG/1.1/DTD/svg11.dtd">
<svg width="100%" height="100%" viewBox="0 0 500 500" version="1.1" xmlns="http://www.w3.org/2000/svg" xmlns:xlink="http://www.w3.org/1999/xlink" xml:space="preserve" xmlns:serif="http://www.serif.com/" style="fill-rule:evenodd;clip-rule:evenodd;stroke-linecap:round;stroke-linejoin:round;stroke-miterlimit:1.5;">
    <g transform="matrix(1,0,0,1,42.072,-2.0089)">
        <g transform="matrix(0.813186,0,0,1,38.8437,0)">
            <rect x="86.595" y="0" width="60.667" height="508.036" style="fill:rgb(223,246,247);stroke:rgb(92,163,168);stroke-width:4.72px;"/>
        </g>
        <g transform="matrix(0.813186,0,0,1,88.177,-4.0178)">
            <rect x="86.595" y="0" width="60.667" height="508.036" style="fill:rgb(223,246,247);stroke:rgb(92,163,168);stroke-width:4.72px;"/>
        </g>
        <g transform="matrix(0.813186,0,0,1,137.51,-4.0178)">
            <rect x="86.595" y="0" width="60.667" height="508.036" style="fill:rgb(223,246,247);stroke:rgb(92,163,168);stroke-width:4.72px;"/>
        </g>
        <g transform="matrix(0.813186,0,0,1,186.844,-4.0178)">
            <rect x="86.595" y="0" width="60.667" height="508.036" style="fill:rgb(223,246,247);stroke:rgb(92,163,168);stroke-width:4.72px;"/>
        </g>
    </g>
    <g transform="matrix(1,0,0,0.958407,0,0.80562)">
        <ellipse cx="170.631" cy="259.684" rx="5.369" ry="240.316" style="fill:white;"/>
    </g>
    <g transform="matrix(0.689594,0,0,0.958407,103.965,0.80562)">
        <ellipse cx="170.631" cy="259.684" rx="5.369" ry="240.316" style="fill:white;"/>
    </g>
    <g transform="matrix(1,0,0,0.954227,98.6666,2.89548)">
        <ellipse cx="170.631" cy="259.684" rx="5.369" ry="240.316" style="fill:white;"/>
    </g>
    <g transform="matrix(1,0,0,0.954227,148,2.89548)">
        <ellipse cx="170.631" cy="259.684" rx="5.369" ry="240.316" style="fill:white;"/>
    </g>
</svg>
